<svg version="1.2" xmlns="http://www.w3.org/2000/svg" viewBox="0 0 742 570" width="742" height="570">
	<title>comparison-video-svg</title>
	<style>
		.s0 { fill: #afd3ff } 
		.s1 { fill: #e3f0ff } 
		.s2 { fill: #6fafff } 
		.s3 { fill: #8dbdf9 } 
		.s4 { fill: #d5e8ff } 
		.s5 { fill: #cbe2ff } 
		.s6 { fill: #f4f9ff } 
		.s7 { fill: #a7ceff } 
		.s8 { fill: #e4f0ff } 
		.s9 { fill: #e0e0e0 } 
		.s10 { fill: #8dc0ff } 
		.s11 { fill: #e6f1ff } 
		.s12 { fill: #fafafa } 
		.s13 { fill: #b8d9ff } 
		.s14 { fill: #4b3cfb } 
		.s15 { fill: #ffbe9d } 
		.s16 { fill: #87bdff } 
		.s17 { fill: #133578 } 
		.s18 { fill: #ffffff } 
		.s19 { opacity: .3;fill: #133578 } 
		.s20 { fill: #0075ff } 
		.s21 { fill: #05c168 } 
		.s22 { fill: #211f54 } 
		.s23 { fill: #eb996e } 
		.s24 { fill: #4a4566 } 
		.s25 { fill: #6e7191 } 
		.s26 { fill: #8883a5 } 
	</style>
	<path id="Layer" class="s0" d="m741.6 629.6h-346.4v-575.4h346.4z"/>
	<path id="Layer" class="s1" d="m715.6 450.6h-294.4v-367.7h294.4z"/>
	<path id="Layer" class="s2" d="m715.6 474.3q-33.6 0.5-67.3 0.6c-22.4 0.3-44.8 0.2-67.3 0.3l1-0.9q0 14.2 0 28.4l-0.1 28.5c-0.2 19-0.4 38-0.8 57-0.4-19-0.6-38-0.8-57v-28.5q0-14.2 0-28.4v-1h0.9c22.4 0 44.9 0 67.3 0.2 22.5 0.3 44.7 0.4 67.1 0.8z"/>
	<path id="Layer" class="s2" d="m581.2 604.4q33.6-0.5 67.3-0.7c22.4-0.2 44.8-0.1 67.3-0.2l-0.9 0.9q0-13.9 0-27.9l0.1-27.9c0.1-18.7 0.3-37.3 0.8-55.9 0.4 18.6 0.6 37.2 0.8 55.9l0.1 27.9c0 9.3 0.1 18.6 0 27.9v1h-1c-22.4-0.1-44.8 0-67.3-0.2-22.5-0.3-44.8-0.4-67.2-0.8z"/>
	<path id="Layer" class="s2" d="m593.8 520.9h8.6v32.9h-8.6z"/>
	<path id="Layer" class="s2" d="m421.2 474.3q33.7-0.6 67.3-0.7c22.5-0.3 44.9-0.2 67.4-0.3h0.9v1q0 14.2 0 28.4v28.5c-0.2 19-0.4 38-0.8 57-0.5-19-0.6-38-0.8-57v-28.5q0-14.2 0-28.4l0.9 0.9c-22.4 0-44.8 0-67.3-0.3-22.5-0.2-45.2-0.3-67.6-0.6z"/>
	<path id="Layer" class="s3" d="m555.7 604.4c-22.4 0.4-44.8 0.6-67.3 0.8-22.5 0.1-44.8 0.1-67.3 0.2h-1v-1q0-13.9 0-27.9l0.1-27.9c0.2-18.7 0.4-37.3 0.9-55.9 0.4 18.6 0.6 37.2 0.7 55.9l0.2 27.9c0 9.3 0.1 18.6 0 27.9l-1-0.9c22.4 0 44.8 0 67.3 0.2 22.5 0.3 45 0.4 67.4 0.7z"/>
	<path id="Layer" class="s3" d="m543 553.8h-8.5v-32.9h8.5z"/>
	<path id="Layer" class="s4" d="m715.6 82.9h-294.4v-8.9h294.4z"/>
	<path id="Layer" class="s4" d="m715.6 208.4h-294.4v-8.9h294.4z"/>
	<path id="Layer" class="s4" d="m715.6 334h-294.4v-8.9h294.4z"/>
	<path id="Layer" class="s3" d="m446.1 199.5v-99.9h30.3v99.9z"/>
	<path id="Layer" class="s5" d="m446.1 171.2v-11h30.3v11z"/>
	<path id="Layer" class="s5" d="m446.1 123.3v-4h30.3v4z"/>
	<path id="Layer" class="s3" d="m702.9 99.6v99.9h-30.3v-99.9z"/>
	<path id="Layer" class="s5" d="m702.9 127.9v11h-30.3v-11z"/>
	<path id="Layer" class="s5" d="m672.6 193.6v-4.1h30.3v4.1z"/>
	<path id="Layer" class="s5" d="m672.6 174.8v-4.1h30.3v4.1z"/>
	<path id="Layer" class="s3" d="m595 199.5v-99.9h23v99.9z"/>
	<path id="Layer" class="s5" d="m595.1 171.2v-11h23v11z"/>
	<path id="Layer" class="s5" d="m595.1 123.4v-4.1h23v4.1z"/>
	<path id="Layer" class="s5" d="m476.4 199.5v-116.6h21.2v116.6z"/>
	<path id="Layer" class="s6" d="m480.5 138.7v-44.8h12.7v44.8z"/>
	<path id="Layer" class="s7" d="m715.7 89.9v109.6h-12.8v-109.6z"/>
	<path id="Layer" class="s6" d="m713.1 97.5v42.1h-7.6v-42.1z"/>
	<path id="Layer" class="s5" d="m639.2 92.9v106.6h-21.1v-106.6z"/>
	<path id="Layer" class="s6" d="m635.1 148.5v41h-12.7v-41z"/>
	<path id="Layer" class="s7" d="m497.5 199.5v-88.5h36v88.5z"/>
	<path id="Layer" class="s3" d="m497.5 190.1v-8.2h36v8.2z"/>
	<path id="Layer" class="s3" d="m497.5 176.5v-3.2h36v3.2z"/>
	<path id="Layer" class="s7" d="m421.2 199.6v-83.3h24.9v83.3z"/>
	<path id="Layer" class="s3" d="m421.2 190.7v-7.8h24.9v7.8z"/>
	<path id="Layer" class="s3" d="m421.2 141.2v-7.8h24.9v7.8z"/>
	<path id="Layer" class="s3" d="m421.2 149.5v-3h24.9v3z"/>
	<path id="Layer" class="s7" d="m639.2 199.5v-116.6h33.4v116.6z"/>
	<path id="Layer" class="s3" d="m639.2 187.2v-10.9h33.4v10.9z"/>
	<path id="Layer" class="s3" d="m639.2 117.8v-10.8h33.4v10.8z"/>
	<path id="Layer" class="s3" d="m639.2 129.5v-4.2h33.4v4.2z"/>
	<path id="Layer" class="s7" d="m583.2 199.5l-31.4-95.2 11.7-3.9 31.5 95.2z"/>
	<path id="Layer" class="s3" d="m579.9 189.4l-2.9-8.8 11.7-3.9 3 8.8z"/>
	<path id="Layer" class="s3" d="m561.2 132.8l-3-8.9 11.8-3.9 3 8.9z"/>
	<path id="Layer" class="s3" d="m551.8 87.3v112.2h-18.3v-112.2z"/>
	<path id="Layer" class="s6" d="m551.8 99.2v10.5h-18.3v-10.5z"/>
	<path id="Layer" class="s6" d="m551.7 166v10.4h-18.2v-10.4z"/>
	<path id="Layer" class="s6" d="m551.8 154.7v4.1h-18.3v-4.1z"/>
	<path id="Layer" class="s3" d="m617.2 325.1v-100h30.3v100z"/>
	<path id="Layer" class="s5" d="m617.2 296.7v-11h30.3v11z"/>
	<path id="Layer" class="s5" d="m617.2 248.9v-4.1h30.3v4.1z"/>
	<path id="Layer" class="s3" d="m464.3 225.1v100h-30.3v-100z"/>
	<path id="Layer" class="s5" d="m464.3 253.4v11h-30.3v-11z"/>
	<path id="Layer" class="s5" d="m434 319.1v-4.1h30.3v4.1z"/>
	<path id="Layer" class="s5" d="m434 300.3v-4.1h30.3v4.1z"/>
	<path id="Layer" class="s3" d="m518.8 325v-99.9h23v99.9z"/>
	<path id="Layer" class="s5" d="m518.8 296.7v-11h23v11z"/>
	<path id="Layer" class="s5" d="m518.8 248.9v-4.1h23v4.1z"/>
	<path id="Layer" class="s5" d="m596 325.1v-116.7h21.2v116.7z"/>
	<path id="Layer" class="s6" d="m600.3 264.2v-44.8h12.7v44.8z"/>
	<path id="Layer" class="s7" d="m434 239.7v85.3h-12.8v-85.3z"/>
	<path id="Layer" class="s6" d="m431.4 245.6v32.8h-7.7v-32.8z"/>
	<path id="Layer" class="s5" d="m518.8 218.4v106.6h-21.1v-106.6z"/>
	<path id="Layer" class="s6" d="m514.5 274v41h-12.7v-41z"/>
	<path id="Layer" class="s7" d="m560.1 325.1v-88.6h35.9v88.6z"/>
	<path id="Layer" class="s3" d="m560.1 315.7v-8.3h35.9v8.3z"/>
	<path id="Layer" class="s3" d="m560.1 302v-3.2h35.9v3.2z"/>
	<path id="Layer" class="s7" d="m690.8 325.1v-106.7h24.8v106.7z"/>
	<path id="Layer" class="s3" d="m690.8 313.8v-10h24.9v10z"/>
	<path id="Layer" class="s3" d="m690.8 250.3v-9.9h24.8v9.9z"/>
	<path id="Layer" class="s3" d="m690.8 261v-3.8h24.8v3.8z"/>
	<path id="Layer" class="s7" d="m464.3 325.1v-116.7h33.4v116.7z"/>
	<path id="Layer" class="s3" d="m464.3 312.7v-10.9h33.4v10.9z"/>
	<path id="Layer" class="s3" d="m464.3 243.3v-10.8h33.4v10.8z"/>
	<path id="Layer" class="s3" d="m464.3 255v-4.2h33.4v4.2z"/>
	<path id="Layer" class="s5" d="m647.5 321.2l31.5-95.3 11.8 3.9-31.5 95.3z"/>
	<path id="Layer" class="s3" d="m650.9 311.1l2.9-8.9 11.8 3.9-3 8.9z"/>
	<path id="Layer" class="s3" d="m669.5 254.5l3-8.9 11.8 3.9-3 8.9z"/>
	<path id="Layer" class="s5" d="m560.1 212.9v112.2h-18.3v-112.2z"/>
	<path id="Layer" class="s6" d="m560.1 224.8v10.4h-18.3v-10.4z"/>
	<path id="Layer" class="s6" d="m560.1 291.5v10.5h-18.3v-10.5z"/>
	<path id="Layer" class="s6" d="m560.1 280.2v4.1h-18.3v-4.1z"/>
	<path id="Layer" class="s3" d="m442.4 450.6v-100h23v100z"/>
	<path id="Layer" class="s5" d="m442.4 422.3v-11h23v11z"/>
	<path id="Layer" class="s5" d="m442.4 374.5v-4.1h23v4.1z"/>
	<path id="Layer" class="s5" d="m421.2 450.6v-116.6h21.2v116.6z"/>
	<path id="Layer" class="s6" d="m425.5 389.8v-44.8h12.8v44.8z"/>
	<path id="Layer" class="s7" d="m501.3 362v88.6h-35.9v-88.6z"/>
	<path id="Layer" class="s3" d="m501.3 371.4v8.3h-35.9v-8.3z"/>
	<path id="Layer" class="s3" d="m501.3 385.1v3.2h-35.9v-3.2z"/>
	<path id="Layer" class="s3" d="m676.3 450.6v-100h18.7v100z"/>
	<path id="Layer" class="s5" d="m676.3 422.3v-11h18.7v11z"/>
	<path id="Layer" class="s5" d="m676.3 374.4v-4h18.7v4z"/>
	<path id="Layer" class="s3" d="m525.5 341.9v108.7h-24.1v-108.7z"/>
	<path id="Layer" class="s5" d="m525.5 372.7v12h-24.2v-12z"/>
	<path id="Layer" class="s5" d="m501.3 444.1v-4.4h24.2v4.4z"/>
	<path id="Layer" class="s5" d="m501.4 423.7v-4.4h24.1v4.4z"/>
	<path id="Layer" class="s3" d="m559.4 450.6v-112.8h22.9v112.8z"/>
	<path id="Layer" class="s5" d="m559.4 418.6v-12.4h22.9v12.4z"/>
	<path id="Layer" class="s5" d="m559.4 364.7v-4.6h22.9v4.6z"/>
	<path id="Layer" class="s5" d="m525.5 450.6v-112.2h12.2v112.2z"/>
	<path id="Layer" class="s6" d="m527.9 392.1v-43.1h7.4v43.1z"/>
	<path id="Layer" class="s5" d="m676.3 344v106.6h-39.7v-106.6z"/>
	<path id="Layer" class="s6" d="m668.2 399.6v41h-23.9v-41z"/>
	<path id="Layer" class="s7" d="m600.6 450.6v-95.3h36v95.3z"/>
	<path id="Layer" class="s3" d="m600.6 440.5v-8.9h36v8.9z"/>
	<path id="Layer" class="s3" d="m600.6 425.8v-3.4h36v3.4z"/>
	<path id="Layer" class="s7" d="m695 450.6v-106.6h20.7v106.6z"/>
	<path id="Layer" class="s3" d="m695 439.3v-9.9h20.6v9.9z"/>
	<path id="Layer" class="s3" d="m695 375.9v-9.9h20.7v9.9z"/>
	<path id="Layer" class="s3" d="m695 386.5v-3.8h20.6v3.8z"/>
	<path id="Layer" class="s7" d="m537.7 450.6v-101h21.7v101z"/>
	<path id="Layer" class="s3" d="m537.7 439.9v-9.4h21.7v9.4z"/>
	<path id="Layer" class="s3" d="m537.7 379.9v-9.4h21.7v9.4z"/>
	<path id="Layer" class="s3" d="m537.7 389.9v-3.6h21.7v3.6z"/>
	<path id="Layer" class="s5" d="m600.6 343.3v107.3h-18.3v-107.3z"/>
	<path id="Layer" class="s6" d="m600.6 354.6v10.1h-18.2v-10.1z"/>
	<path id="Layer" class="s6" d="m600.6 418.5v10h-18.3v-10z"/>
	<path id="Layer" class="s6" d="m600.6 407.7v3.9h-18.3v-3.9z"/>
	<path id="Layer" class="s8" d="m98.5 383.5l15.1 3.2-15.1 4.5c-1 0.2-1.8 0.8-2.5 1.5-0.6 0.7-1.1 1.6-1.3 2.6l-3.8 18.1-4.1-17.8c-0.3-1-0.8-1.9-1.5-2.6-0.7-0.7-1.6-1.2-2.6-1.5l-15.1-3.4 15.5-4.4c1-0.2 1.8-0.8 2.5-1.5 0.7-0.7 1.2-1.7 1.4-2.6l3.4-17.4 3.9 17.3c0.3 1 0.8 1.9 1.5 2.6 0.7 0.7 1.7 1.2 2.7 1.4z"/>
	<path id="Layer" class="s8" d="m28.7 513.3l7.9 1.6-8 2.4q-0.7 0.2-1.2 0.8-0.5 0.5-0.7 1.3l-2 9.5-2.2-9.3c-0.1-0.6-0.3-1-0.7-1.4-0.4-0.4-0.9-0.6-1.4-0.7l-7.9-1.9 8.1-2.3q0.8-0.2 1.4-0.8 0.5-0.6 0.7-1.3l1.8-9.2 2 9.1c0.1 0.5 0.4 1 0.8 1.4q0.6 0.6 1.4 0.8z"/>
	<path id="Layer" class="s8" d="m140.2 368.3l4.6 1-4.6 1.4q-0.4 0.1-0.7 0.5-0.4 0.3-0.4 0.7l-1.2 5.6-1.3-5.4q-0.1-0.5-0.4-0.8-0.4-0.3-0.8-0.4l-4.6-1.1 4.7-1.4q0.5-0.1 0.8-0.4 0.3-0.4 0.4-0.8l1-5.3 1.2 5.2q0.2 0.5 0.5 0.8 0.3 0.3 0.8 0.4z"/>
	<path id="Layer" class="s8" d="m162.9 461.5l4.6 0.9-4.6 1.4q-0.5 0.1-0.8 0.5-0.3 0.3-0.4 0.8l-1.1 5.5-1.3-5.4q-0.1-0.5-0.4-0.8-0.4-0.4-0.8-0.5l-4.6-1 4.7-1.4q0.5-0.1 0.8-0.5 0.3-0.3 0.4-0.8l1-5.3 1.2 5.3q0.1 0.5 0.5 0.8 0.3 0.4 0.8 0.5z"/>
	<path id="Layer" class="s8" d="m50.9 492.1l3.8 0.8-3.8 1.1q-0.4 0.1-0.6 0.4-0.3 0.3-0.4 0.7l-0.9 4.5-1.1-4.5q-0.1-0.3-0.3-0.6-0.3-0.3-0.7-0.4l-3.8-0.8 3.9-1.1q0.4-0.1 0.7-0.4 0.2-0.3 0.3-0.6l0.9-4.4 0.9 4.3q0.1 0.4 0.4 0.7 0.3 0.2 0.7 0.3z"/>
	<path id="Layer" class="s9" d="m302.2 535.1l3.8 0.8-3.8 1.1q-0.3 0.1-0.6 0.4-0.2 0.3-0.3 0.7l-1 4.5-1-4.5q-0.1-0.3-0.4-0.6-0.2-0.3-0.6-0.4l-3.8-0.8 3.9-1.1q0.3-0.1 0.6-0.4 0.3-0.3 0.3-0.7l0.9-4.3 1 4.3q0.1 0.4 0.4 0.7 0.2 0.2 0.6 0.3z"/>
	<path id="Layer" class="s8" d="m201.7 272.6l3.8 0.8-3.8 1.1q-0.4 0.1-0.6 0.4-0.3 0.3-0.4 0.6l-0.9 4.6-1-4.5q-0.1-0.4-0.4-0.6-0.3-0.3-0.7-0.4l-3.7-0.9 3.8-1.1q0.4-0.1 0.7-0.4 0.2-0.2 0.3-0.6l0.9-4.4 0.9 4.4q0.1 0.3 0.4 0.6 0.3 0.3 0.7 0.4z"/>
	<path id="Layer" class="s9" d="m551.9 396.5l3.7 0.8-3.7 1.1q-0.4 0.1-0.7 0.4-0.2 0.3-0.3 0.6l-0.9 4.6-1.1-4.5q-0.1-0.4-0.3-0.6-0.3-0.3-0.7-0.4l-3.8-0.9 3.9-1.1q0.4 0 0.6-0.3 0.3-0.3 0.4-0.7l0.8-4.4 1 4.4q0.1 0.4 0.4 0.6 0.3 0.3 0.7 0.4z"/>
	<path id="Layer" class="s9" d="m489.2 287.7l3.8 0.8-3.8 1.1q-0.3 0.1-0.6 0.4-0.2 0.3-0.3 0.6l-1 4.6-1-4.5q-0.1-0.4-0.4-0.6-0.3-0.3-0.7-0.4l-3.7-0.9 3.9-1.1q0.3-0.1 0.6-0.4 0.2-0.2 0.3-0.6l0.9-4.4 1 4.4q0.1 0.4 0.3 0.6 0.3 0.3 0.7 0.4z"/>
	<path id="Layer" class="s8" d="m359 78.6l3.8 0.8-3.8 1.1q-0.4 0.1-0.6 0.4-0.3 0.3-0.3 0.6l-1 4.6-1-4.5q-0.1-0.4-0.4-0.6-0.3-0.3-0.7-0.4l-3.7-0.9 3.8-1.1q0.4-0.1 0.7-0.3 0.2-0.3 0.3-0.7l0.9-4.4 1 4.4q0 0.4 0.3 0.6 0.3 0.3 0.7 0.4z"/>
	<path id="Layer" class="s9" d="m201.8 477.3l7.6 1.7-7.6 2.2q-0.7 0.2-1.3 0.8-0.5 0.5-0.6 1.3l-2 9.1-2.1-8.9q-0.2-0.8-0.7-1.4-0.6-0.5-1.3-0.7l-7.7-1.7 7.9-2.3q0.7-0.2 1.3-0.7 0.5-0.6 0.6-1.4l1.8-8.8 2 8.8q0.2 0.7 0.7 1.3 0.6 0.6 1.4 0.7z"/>
	<path id="Layer" class="s8" d="m218 310.6l7.6 1.6-7.6 2.3q-0.8 0.2-1.3 0.7-0.5 0.6-0.7 1.3l-1.9 9.2-2.1-9q-0.2-0.8-0.7-1.3-0.6-0.6-1.4-0.8l-7.6-1.7 7.9-2.2q0.7-0.2 1.2-0.8 0.6-0.6 0.7-1.3l1.8-8.9 1.9 8.8c0.2 0.5 0.4 1 0.8 1.4q0.6 0.5 1.4 0.7z"/>
	<path id="Layer" class="s8" d="m324.7 32.3l7.6 1.6-7.6 2.2q-0.7 0.3-1.3 0.8-0.5 0.6-0.6 1.3l-2 9.2-2.1-9q-0.2-0.8-0.8-1.3-0.5-0.6-1.3-0.8l-7.6-1.7 7.8-2.2q0.8-0.3 1.3-0.8 0.5-0.6 0.7-1.3l1.7-8.9 2 8.8c0.1 0.5 0.4 1 0.8 1.4 0.4 0.3 0.9 0.6 1.4 0.7z"/>
	<path id="Layer" class="s8" d="m543.6 221.1l13.1 2.7-13.1 3.9c-0.8 0.2-1.6 0.7-2.2 1.3-0.5 0.6-0.9 1.4-1.1 2.3l-3.3 15.7-3.6-15.4c-0.2-0.9-0.7-1.7-1.3-2.3-0.6-0.6-1.4-1-2.3-1.2l-13.1-3 13.5-3.8c0.8-0.3 1.6-0.8 2.2-1.4 0.6-0.6 1-1.4 1.1-2.3l3.1-15.2 3.4 15.1c0.2 0.9 0.6 1.7 1.3 2.3 0.6 0.6 1.4 1.1 2.3 1.3z"/>
	<path id="Layer" class="s10" d="m146.1 128.8h-123v-128.4h123z"/>
	<path id="Layer" class="s11" d="m137.7 128.8h-123v-128.4h123z"/>
	<path id="Layer" fill-rule="evenodd" class="s9" d="m137.8 128.9h-123.1v-128.5h123.1zm-123-0.1h122.9v-128.3h-122.9z"/>
	<path id="Layer" class="s12" d="m121.2 111.6h-89.9v-93.9h89.9z"/>
	<path id="Layer" class="s13" d="m31.3 112.2q-1 1.4-2.2 2.6c-1.4 1.5-3.5 3.5-5.7 5.8-2.3 2.2-4.4 4.1-5.9 5.6q-1.2 1.3-2.6 2.2 0.9-1.4 2.2-2.6c1.4-1.5 3.4-3.6 5.7-5.8 2.3-2.3 4.4-4.2 5.9-5.7q1.2-1.2 2.6-2.1z"/>
	<path id="Layer" class="s13" d="m121.3 112q1.4 0.9 2.5 2.2c1.6 1.4 3.6 3.4 5.8 5.7 2.3 2.3 4.2 4.3 5.6 5.9q1.2 1.2 2.2 2.6-1.5-1-2.6-2.2c-1.5-1.4-3.6-3.5-5.8-5.8-2.2-2.2-4.2-4.3-5.6-5.9q-1.2-1.1-2.1-2.5z"/>
	<path id="Layer" class="s13" d="m121 17.9q0.9-1.4 2.2-2.5c1.4-1.6 3.5-3.6 5.7-5.8 2.3-2.3 4.4-4.2 5.9-5.6q1.1-1.3 2.6-2.2-1 1.4-2.2 2.5c-1.4 1.5-3.5 3.6-5.8 5.8-2.2 2.3-4.3 4.2-5.9 5.7q-1.1 1.2-2.5 2.1z"/>
	<path id="Layer" class="s13" d="m31 18.2q-1.4-1-2.5-2.2c-1.6-1.4-3.6-3.5-5.8-5.8-2.3-2.3-4.2-4.3-5.6-5.9q-1.2-1.1-2.2-2.6 1.5 1 2.6 2.3c1.5 1.3 3.6 3.4 5.8 5.7 2.3 2.3 4.2 4.3 5.6 5.9q1.2 1.1 2.1 2.6z"/>
	<path id="Layer" class="s13" d="m121 111.6q0-0.3 0-0.5 0-0.5 0-1.3 0-1.8 0-5.1c0-4.4 0-10.9-0.1-19.1 0-16.4-0.1-39.9-0.2-67.9l0.4 0.3h-89.7l0.4-0.3c0 34.4 0 66.6 0 93.8l-0.4-0.3 65 0.2h18.2 4.8 1.3 0.4-0.4-1.2-4.8l-18.1 0.1-65.3 0.4h-0.4v-0.4c0-27.2 0-59.4 0-93.8v-0.5h0.4 89.7 0.3v0.4c-0.1 28.1-0.1 51.6-0.2 68.1 0 8.2 0 14.6-0.1 19.1q0 3.2 0 5 0 0.8 0 1.3c0 0.3 0 0.5 0 0.5z"/>
	<path id="Layer" class="s14" d="m91.3 79.6h-30v-30h30z"/>
	<path id="Layer" class="s10" d="m146 289.2h-123v-128.4h123z"/>
	<path id="Layer" class="s11" d="m137.6 289.2h-123v-128.4h123z"/>
	<path id="Layer" fill-rule="evenodd" class="s9" d="m137.7 289.2h-123.1v-128.4h123.1zm-123-0.1h122.9v-128.3h-122.9z"/>
	<path id="Layer" class="s12" d="m121.1 271.9h-89.9v-93.8h89.9z"/>
	<path id="Layer" class="s13" d="m31.2 272.6q-1 1.4-2.2 2.5c-1.4 1.6-3.5 3.6-5.8 5.8-2.2 2.3-4.3 4.2-5.8 5.6q-1.2 1.2-2.6 2.2 0.9-1.4 2.2-2.5c1.4-1.6 3.4-3.6 5.7-5.9 2.3-2.2 4.4-4.1 5.9-5.6q1.2-1.2 2.6-2.1z"/>
	<path id="Layer" class="s13" d="m121.1 272.3q1.4 1 2.6 2.2c1.5 1.4 3.6 3.5 5.8 5.8 2.2 2.2 4.2 4.3 5.5 5.9q1.3 1.1 2.2 2.6-1.4-1-2.6-2.3c-1.5-1.4-3.5-3.4-5.8-5.7-2.2-2.3-4.1-4.4-5.6-5.9q-1.2-1.2-2.1-2.6z"/>
	<path id="Layer" class="s13" d="m120.9 178.3q0.9-1.4 2.2-2.6c1.4-1.5 3.4-3.5 5.7-5.8 2.3-2.2 4.3-4.2 5.9-5.6q1.1-1.3 2.6-2.2-1 1.4-2.2 2.6c-1.4 1.5-3.5 3.6-5.8 5.8-2.2 2.2-4.3 4.2-5.8 5.6q-1.2 1.3-2.6 2.2z"/>
	<path id="Layer" class="s13" d="m30.9 178.5q-1.4-0.9-2.6-2.2c-1.5-1.4-3.6-3.4-5.8-5.7-2.2-2.3-4.1-4.4-5.5-5.8q-1.2-1.2-2.2-2.6 1.4 0.9 2.6 2.2c1.5 1.4 3.6 3.4 5.8 5.7 2.2 2.3 4.2 4.4 5.6 5.9q1.2 1.1 2.1 2.5z"/>
	<path id="Layer" class="s13" d="m120.9 272q-0.1-0.3 0-0.5 0-0.5 0-1.3 0-1.8 0-5.1c0-4.4 0-10.9-0.1-19.1 0-16.5-0.1-39.9-0.2-67.9l0.3 0.3h-89.6l0.4-0.4c0 34.5 0 66.7 0 93.9l-0.4-0.3 65 0.1 18.2 0.1h4.8 1.7q-0.2 0-0.4 0h-1.2-4.8l-18.1 0.1-65.2 0.2h-0.4v-0.1c0-27.2 0-59.5 0-93.9v-0.4h0.4 89.7 0.3v0.3c-0.1 28.2-0.2 51.7-0.2 68.2 0 8.2-0.1 14.6-0.1 19q0 3.3 0 5 0 0.8 0 1.3-0.1 0.2-0.1 0.5z"/>
	<path id="Layer" class="s14" d="m91.2 240h-30.1v-30h30.1z"/>
	<path id="Layer" class="s15" d="m260.1 465.2l-29.4 32-28.2-28.3 20.2-35.7z"/>
	<path id="Layer" class="s16" d="m49 545.3l38.1-1c0 0 19.9-12.1 21.5-13 1.6-0.9 10.6-2.8 10.6-2.8l60.4 19v5.6h-141.4v-4.3l6.5-0.6z"/>
	<path id="Layer" class="s17" d="m235 497.5l-49.8 39.6-4.5 5.7c-1 1.3-2.3 2.4-3.8 3.2-1.4 0.7-3 1.2-4.6 1.3l-35.6 2.3c0 0-16.7 5.1-18.6-1.4-1.7-5.6 7.1-9.9 7.1-9.9 0 0-25.8 11.5-30.6 11.2-4.8-0.3-3.8-5.1-3.8-5.1l42.4-23.7 38.3-7c0 0 32.1-50.1 33.2-49.9 25.9 3.8 30.3 33.7 30.3 33.7z"/>
	<path id="Layer" class="s18" d="m147.9 531.2q-0.3 0.5-0.8 0.9-1.3 1.2-2.7 2.1-2 1.4-4.4 2.4c-1.9 0.7-3.9 1.1-6 1.2q-3 0.1-6 0.5-2.4 0.5-4.5 1.7c-2.5 1.4-3.7 2.6-3.8 2.5-0.1-0.1 0.2-0.4 0.8-0.9q1.3-1.1 2.7-2 2.2-1.3 4.6-2 3.1-0.5 6.1-0.5c3.7-0.2 7.2-1.4 10.3-3.3 2.3-1.5 3.7-2.7 3.7-2.6z"/>
	<path id="Layer" class="s18" d="m176.6 525.3c-0.2 0-0.6-2.8-2.2-5.9q-1.6-2.8-2.9-5.8c1.5 1.6 2.7 3.5 3.5 5.5 1.1 1.9 1.7 4 1.6 6.2z"/>
	<path id="Layer" class="s18" d="m186.3 528.3q-1.3-0.6-2.3-1.5c-3.5-2.9-6.2-6.6-8.1-10.7q-0.6-1.3-0.8-2.7 2.1 4.2 4.8 8 3 3.7 6.4 6.9z"/>
	<path id="Layer" class="s18" d="m198 518q-0.2-0.6-0.2-1.2c0-0.9-0.1-2-0.1-3.5q-0.1-5.6 0.7-11.3 0.9-5.6 2.6-11 0.7-2.1 1.2-3.2 0.2-0.6 0.5-1.2-0.5 2.3-1.2 4.6c-2 7.2-3.1 14.6-3.3 22.1q0 2.4-0.2 4.7z"/>
	<g id="Layer" style="opacity: .3">
		<path id="Layer" class="s19" d="m201.4 491.3c-2.7 7.6-3.8 15.7-3.2 23.8 2.6-7.6 3.7-15.7 3.2-23.8z"/>
	</g>
	<path id="Layer" class="s17" d="m363.3 571.2l4-32 151.8-84.4c0 0 22.2 36 30.7 116.4l-106.6-0.5z"/>
	<path id="Layer" class="s20" d="m339.4 222.4l26.1-6.3c8.6-2.1 17.6-2.1 26.3-0.1 11.6 2.9 21.6 9.5 29.6 27.5l53 122.4c0 0 13.2 27.9 29.2 66.6 3.4 8.1 11.8 2.3 17.3 23.6l-24.8 34.3c-14 25.1-37.3 43.8-64.9 52l-0.4 0.1c-16.2 4.9-38.3 9.9-57.5 9-35.3-1.6-28.4-26.1-28.4-26.1 2.5-10.1-1-27.9-4.5-35.6l-42.7-90-37.3-76.5 3.2-42.9 19.4-21.5z"/>
	<path id="Layer" class="s20" d="m216 444c0-12.8 8.3-14.6 8.3-14.6l22.8-120.9c3.9-13.7 16.5-28.1 16.5-28.1l27.3 101.2c0 0-17.7 86.4-28.5 98.9 0 0-46.3-27.9-46.4-36.5z"/>
	<path id="Layer" class="s17" d="m311.1 427.6q-0.3-0.4-0.5-0.8l-1.4-2.6-4.9-9.4c-4-8-9.6-18.9-15.7-31.1l-15.5-31.2-4.7-9.5q-0.7-1.6-1.2-2.5-0.2-0.5-0.4-1 0.3 0.4 0.5 0.9l1.4 2.5 4.9 9.4c4 8 9.6 19 15.7 31.1l15.6 31.2 4.6 9.5q0.8 1.6 1.3 2.6 0.2 0.5 0.3 0.9z"/>
	<path id="Layer" class="s17" d="m503.1 441q-0.1 0.6-0.3 1.1l-1.1 3.3-0.8 2.4q-0.4 1.3-1 2.8c-0.8 2-1.6 4.3-2.8 6.8q-0.8 1.8-1.7 3.9c-0.6 1.3-1.4 2.6-2.1 4.1-1.4 2.8-3.2 5.7-5 8.8-8 13.4-18 25.4-29.7 35.7-2.7 2.3-5.3 4.5-7.8 6.4-1.3 0.9-2.5 1.9-3.7 2.8-1.2 0.8-2.4 1.6-3.5 2.4-2.2 1.6-4.3 2.8-6.1 3.9q-1.4 0.9-2.6 1.6l-2.2 1.1-3.1 1.6q-0.5 0.3-1.1 0.6 0.5-0.4 1-0.7l3-1.7 2.2-1.3c0.8-0.5 1.6-1 2.5-1.6 1.8-1.2 3.9-2.4 6.1-4l3.5-2.4c1.2-0.9 2.3-1.9 3.6-2.8 2.5-1.9 5.1-4.2 7.8-6.5 11.5-10.3 21.5-22.2 29.6-35.4 1.8-3.1 3.5-6 4.9-8.8 0.8-1.4 1.5-2.8 2.1-4.1l1.8-3.9c1.2-2.4 2.1-4.7 2.9-6.7q0.6-1.4 1.1-2.7l0.8-2.4 1.2-3.3q0.2-0.5 0.5-1z"/>
	<g id="Layer" style="opacity: .3">
		<path id="Layer" class="s19" d="m437.6 422.5c0.9 1.3 9.5-2.9 14.2-5.4 14.2-7.2 26.8-19.9 33.2-33.8 0.3 11.3-4.7 22.6-12.5 30.8-7.8 8.2-18.3 13.7-29.2 16.8-10.9 3.2-26.9 5.1-38.2 5.3z"/>
	</g>
	<path id="Layer" class="s15" d="m355.7 418.4c2-2.2 50.5-38.5 50.5-38.5l39.8 42.2-66.9 28.3z"/>
	<path id="Layer" class="s20" d="m399.9 380.5c0 0 5.8-13 18.5-10.9l-45.2-79.2c0 0-25.4-41.2-12.6-55.8 22-25.2 44.1-13.9 51.1-6.8 6.9 7 70.2 116.7 74.1 132.3 3.7 14.2 1.8 33.6-26 55-5.8 4.6-14.5 8.4-23.4 12z"/>
	<path id="Layer" class="s17" d="m400.8 383.9q0-0.2-0.1-0.5c-0.3-2.2 0-4.5 0.8-6.7 1.2-2.6 3.4-4.6 6.1-5.7 3.5-1.3 7.1-1.9 10.8-1.7l-0.2 0.5c-4.7-8.1-10.2-17.7-16.1-28l-20.5-36.2-6.2-11q-1-1.9-1.6-3.1-0.3-0.5-0.6-1 0.4 0.4 0.7 1 0.7 1.1 1.8 2.9l6.3 10.9c5.3 9.3 12.6 22.1 20.7 36.1l16 28.1 0.2 0.5h-0.5c-3.6-0.3-7.2 0.2-10.6 1.5-2.6 1-4.7 2.9-6 5.4-0.7 1.6-1 3.4-1 5.2 0 1.2 0.1 1.8 0 1.8z"/>
	<path id="Layer" class="s17" d="m483.9 354.8q0.2 0.4 0.4 0.9c0.2 0.6 0.7 1.4 1 2.6 1.2 3.4 1.8 6.8 2 10.3q0.2 3.7-0.3 7.3-0.6 4.2-2 8.1-1.6 4.4-3.9 8.4-2.5 4.3-5.5 8.2c-7.5 8.9-16.6 16.2-27 21.5q-4.6 2.4-9.6 4.2c-1.1 0.4-2.1 0.7-2.7 0.9q-0.5 0.1-1 0.2 0.5-0.2 1-0.4c0.6-0.2 1.5-0.5 2.6-1q4.9-1.9 9.5-4.4c10.2-5.3 19.2-12.7 26.6-21.5q3.1-3.8 5.6-8.1 2.2-3.9 3.8-8.2 1.4-3.9 2-8 0.6-3.6 0.4-7.2c-0.1-3.4-0.7-6.9-1.7-10.2-0.3-1.2-0.7-2.1-0.9-2.7q-0.2-0.5-0.3-0.9z"/>
	<g id="Layer" style="opacity: .3">
		<path id="Layer" class="s19" d="m418.1 369.6c5 0.6 9.9 2.2 14.2 4.8 4.4 2.5 8.2 6 11.1 10.1 0.8 0.9 1.3 2 1.6 3.2 0.1 0.5 0 1.2-0.2 1.7-0.2 0.6-0.6 1-1.1 1.4q-0.7 0.4-1.5 0.3-0.9 0-1.6-0.4-1.4-1-2.4-2.3c-6.4-7.2-11.8-13.3-19.8-18.8"/>
	</g>
	<path id="Layer" class="s17" d="m442.7 397c-0.1 0-1.1-1.8-2.8-4.7q-3.3-5.7-7.5-10.7c-2.9-3.3-6.1-6.2-9.6-8.8-2.7-2-4.5-3.1-4.4-3.2q0.7 0.3 1.3 0.7c0.8 0.4 2 1.1 3.4 2.1 3.6 2.5 6.9 5.4 9.8 8.7 2.9 3.4 5.4 7 7.5 10.9 0.7 1.5 1.3 2.8 1.7 3.6q0.4 0.7 0.6 1.4z"/>
	<path id="Layer" class="s17" d="m392.4 216.1c-3.8 0.1-7.5 0.7-11 1.9-3.9 1.2-7.5 3.1-10.7 5.6-3.9 3-7.2 6.8-9.5 11.2-2.3 4.4-3.5 9.2-3.7 14.2-0.2 4 0.3 8.1 1.5 12 1.1 3.5 2.7 6.9 4.7 10.1 0 0-0.2-0.2-0.5-0.6q-0.7-0.9-1.3-1.9c-1.4-2.3-2.6-4.9-3.4-7.5-1.3-3.9-1.8-8-1.7-12.1 0.2-5.1 1.5-10.1 3.8-14.5 2.3-4.5 5.7-8.4 9.7-11.4 3.3-2.5 7-4.4 10.9-5.6 2.7-0.8 5.4-1.3 8.1-1.4 1-0.1 1.8 0 2.3 0q0.4-0.1 0.8 0z"/>
	<path id="Layer" class="s21" d="m278.9 471.5l-11.8 12.5-13.3 1.3 24.6 9.1-3.2 5.4-26.4-6-2.2 0.3c0 0-5.3 6.8-8.1 7.9-2.9 1.1-7.1-1.6-7.7-6.5-0.7-5 15.4-29.8 19.4-36.7 4.1-7 20.8-9.6 20.8-9.6l3.9 1.7 1.7 3.4z"/>
	<path id="Layer" class="s18" d="m305.8 484.1c0.7-2 1.7-3.8 3.2-5.3 1.4-1.5 3.1-2.7 5-3.5 1.9-0.9 4-1.2 6.1-1.2 2.1 0 4.1 0.5 6 1.4l74.4 35.2c3.3 1.5 5.9 4.2 7.3 7.5 1.4 3.3 1.6 7 0.5 10.4-3.5 10.7-8.4 20.9-14.5 30.2-2 3.1-5.1 5.3-8.6 6.2-3.5 1-7.2 0.6-10.4-1-17.3-8.7-49.3-25.1-54.1-31.4-6.1-8-12.5-16.9-16.9-22.7-1.4-1.9-2.4-4.1-2.8-6.5-0.4-2.4-0.1-4.9 0.6-7.2z"/>
	<path id="Layer" class="s17" d="m301.6 496.2c0 0 0-0.2 0.2-0.7l0.7-2.2c0.7-1.9 1.6-4.7 2.8-8.4 0.6-2 1.6-3.9 3-5.6 1.6-2 3.7-3.5 6.1-4.4 2.8-1.1 5.8-1.3 8.7-0.7q2.3 0.6 4.4 1.7l4.6 2.1 43.4 20.5 25.6 12.1c2.3 1.1 4.2 2.9 5.7 5 1.4 2.1 2.3 4.6 2.5 7.2 0.2 2.6-0.2 5.2-1.2 7.6-0.9 2.5-1.8 4.9-2.8 7.3q-3 7.2-6.8 13.9-1.9 3.3-3.9 6.5-1 1.6-2.3 3c-2.1 2.3-4.9 3.8-8 4.4-3.1 0.6-6.2 0.3-9.1-1-4.3-2-8.3-4.1-12.4-6.2-8-4.2-15.6-8.2-22.6-12.1-3.5-2-6.8-4-10-6q-4.6-2.7-8.7-6.3-1.7-1.9-3.1-3.9-1.5-2-2.8-3.9c-1.8-2.4-3.5-4.8-5.2-6.9q-2.4-3.2-4.4-6.1-2-2.5-3.6-5.3c-1.4-2.6-1.9-5.6-1.5-8.6q0.2-1.5 0.7-2.9c0 0 0 0.2-0.1 0.7q-0.3 1.1-0.5 2.2c-0.3 3 0.3 5.9 1.6 8.5q1.6 2.7 3.6 5.2l4.6 6 5.2 7 2.8 3.8q1.4 2 3.1 3.9 4.1 3.5 8.7 6.2c3.1 2 6.5 3.9 10 5.9 6.9 3.9 14.5 7.9 22.6 12 4 2.1 8.1 4.2 12.3 6.3 2.2 0.9 4.6 1.3 6.9 1.1 2.4-0.1 4.6-0.9 6.6-2.1q1.6-1 2.8-2.3 1.3-1.4 2.2-2.9c1.4-2.1 2.7-4.2 3.9-6.5q3.8-6.7 6.7-13.8c1-2.4 1.9-4.9 2.8-7.3 1-2.3 1.4-4.8 1.2-7.3-0.2-2.5-1-4.8-2.4-6.9-1.3-2-3.2-3.6-5.4-4.8l-25.6-12.1-43.3-20.6-4.5-2.1q-2.1-1.1-4.4-1.7c-2.8-0.6-5.6-0.4-8.3 0.6-2.4 0.9-4.4 2.3-6 4.3-1.4 1.6-2.4 3.5-3 5.5q-1.9 5.4-2.9 8.4-0.5 1.4-0.8 2.1c-0.2 0.6-0.4 0.6-0.4 0.6z"/>
	<path id="Layer" class="s17" d="m272.3 466.7c0 0 1.7-12.2 5.9-13.5 4.2-1.2 30.2-9 30.2-9l71.5-49.1 27.8 53.6-65.3 26.4c0 0-2.6 3.4-5.4 2.1 0 0-4.4 5.2-6.6 5.5-2.3 0.3-1.5 1.6-1.5 1.6 0 0-19.2 32-23.8 32.6-4.6 0.6-10.4-0.2-10.2-3.9 0 0-8.6 3.1-11.4-0.2 0 0-6.7 5.1-11-0.4q-1.7-2.9-3.1-6.1c0 0-5.8 7.2-11 4.7-5-2.4-3.9-10.1-1.2-14.8 2.7-4.7 15.1-29.5 15.1-29.5z"/>
	<path id="Layer" class="s17" d="m245.5 495.7c-0.2 0-0.6-0.7-1.4-1.8-2.3-2.7-5.5-4.5-9.1-5q-1.1 0-2.2-0.2c0.7-0.3 1.5-0.4 2.3-0.3 1.8 0.1 3.7 0.6 5.3 1.5 1.6 0.9 3 2.2 4.1 3.7 0.5 0.7 0.8 1.4 1 2.1z"/>
	<path id="Layer" class="s17" d="m267.8 475.1q-1.6 1.6-3.5 2.8c-2.2 1.7-5.2 3.9-8.4 6.6q-4.1 3.5-7.6 7.6c-1.7 2.1-2.6 3.5-2.7 3.5q0.1-0.6 0.5-1.1 0.8-1.4 1.8-2.7c2.2-2.9 4.7-5.5 7.5-7.8q4.1-3.5 8.6-6.5 1.8-1.4 3.8-2.4z"/>
	<path id="Layer" class="s20" d="m329.6 531.4l20.5-39.2 37.2 17-24.3 42.8z"/>
	<path id="Layer" class="s18" d="m305 497.3q-0.4 1.3-1.1 2.6-1.5 3-3.4 5.9-1.9 2.8-4.2 5.4-0.8 1.1-2 1.9c-0.2-0.1 2.6-3.4 5.6-7.7 2.9-4.4 4.9-8.2 5.1-8.1z"/>
	<path id="Layer" class="s18" d="m291.3 497.8c-0.6 2.8-1.6 5.6-3.1 8.1-1.3 2.6-2.9 4.9-4.9 7-0.2-0.1 2.1-3.2 4.3-7.4 2.2-4.2 3.5-7.8 3.7-7.7z"/>
	<path id="Layer" class="s18" d="m276.1 495.1q-1 3.2-2.8 6c-0.9 2-2.3 3.8-4 5.3-0.1-0.2 1.7-2.5 3.4-5.6 1.7-3.1 3.2-5.8 3.4-5.7z"/>
	<path id="Layer" class="s18" d="m327.7 474.8c0 0.2-7.6-1.7-16.9-4.2-9.3-2.5-16.7-4.7-16.7-4.9 0-0.2 7.6 1.7 16.9 4.2 9.3 2.5 16.7 4.7 16.7 4.9z"/>
	<path id="Layer" class="s18" d="m324.5 468.2q-1.4-0.1-2.7-0.6-3.1-1-6.2-2.4-3-1.4-5.8-3.2-1.2-0.7-2.2-1.6c0.1-0.2 3.7 2 8.3 4.1 4.7 2.2 8.7 3.5 8.6 3.7z"/>
	<g id="Layer" style="opacity: .3">
		<path id="Layer" class="s19" d="m335.5 474.1c-5.2-6.1-9.4-11.9-14.5-18q-0.6-0.6-0.9-1.3-0.1-0.4 0-0.8 0.2-0.4 0.5-0.6c0.6-0.3 1.3 0.1 1.8 0.5 5.8 4.8 10.4 10.7 13.7 17.3 0.3 0.7 0.5 1.3 0.9 1.9 0.3 0.7-1.1 1.5-1.5 1z"/>
	</g>
	<path id="Layer" class="s17" d="m213.9 525.5q1.1-1.6 2.4-3.1c1.4-1.8 3.5-4.4 5.9-7.2 2.4-2.8 4.5-5.3 6.1-7q1.2-1.6 2.7-2.8-1 1.7-2.3 3.1c-1.5 1.9-3.6 4.4-5.9 7.2-2.4 2.8-4.6 5.3-6.2 7q-1.2 1.6-2.7 2.8z"/>
	<path id="Layer" class="s17" d="m219.6 545.4c-0.2 0 2.9-8.4 6.8-18.6 4-10.2 7.3-18.4 7.5-18.3 0.2 0.1-2.8 8.3-6.8 18.6-3.9 10.2-7.3 18.3-7.5 18.3z"/>
	<path id="Layer" class="s17" d="m237.4 534.4q-0.5-6.6-0.2-13.1-0.1-6.6 0.5-13.1 0.4 6.5 0.2 13.1 0.1 6.6-0.5 13.1z"/>
	<path id="Layer" class="s22" d="m192.8 173.7c0-7 2.2-9.4 0.6-10.8-6-4.7-11.2-17.2-11.7-22.7-1.2-13.1 9.8-24.5 9.8-24.5 2.1-7 4.9-16.2 13.2-22.6 8.9-7 22.9-15.2 34.2-13.8 11.2 1.5 19.3 2.2 26.5 10.9l-15.7 139.1c-8.7-0.3-16.5-5.8-22.4-12.2-5.9-6.4-10.5-13.9-16.6-20.1-4.6-4.6-5.6-2.7-13.5-13.1-4.9-6.5-4.5-3.7-4.4-10.2z"/>
	<path id="Layer" class="s15" d="m346.1 234.3c-4.1 11.8-12.4 21.8-23.3 28-10.9 6.2-23.7 8.3-36 5.9l-11.8-22.6c0 0-28 7.7-40-18.3-5.8-12.5-15.6-39.3-24.3-63.7-4.5-12.6-4-26.5 1.2-38.8 5.3-12.3 15-22.2 27.2-27.7l2.5-1.2c27.9-10.6 52.4 7.2 62.2 35.4z"/>
	<path id="Layer" class="s22" d="m274.1 178.8q-0.1-0.8 0.2-1.5 0.3-0.7 0.9-1.3 0.5-0.5 1.2-0.8c1-0.5 2.1-0.5 3.1-0.2 0.9 0.4 1.8 1.1 2.2 2q0.3 0.8 0.3 1.5 0.1 0.8-0.2 1.5-0.3 0.8-0.9 1.3-0.5 0.6-1.2 0.9c-1 0.4-2.1 0.4-3.1 0.1-0.9-0.4-1.8-1.1-2.2-2q-0.3-0.7-0.3-1.5z"/>
	<path id="Layer" class="s22" d="m236.8 195.4q0-0.8 0.3-1.5 0.3-0.7 0.8-1.3 0.6-0.5 1.3-0.8c0.9-0.5 2-0.5 3-0.2 1 0.4 1.8 1.1 2.3 2.1q0.3 0.7 0.3 1.4 0 0.8-0.3 1.5-0.3 0.8-0.8 1.3-0.6 0.6-1.3 0.9c-0.9 0.4-2 0.5-3 0.1-1-0.3-1.8-1.1-2.3-2q-0.3-0.7-0.3-1.5z"/>
	<path id="Layer" class="s22" d="m225.2 185.6c1-2 2.6-3.6 4.6-4.6 2.1-1.1 4.3-1.5 6.6-1.2 1.7 0.4 2.6 0.9 2.5 1.2-0.2 0.7-4 0.2-7.9 2.2-3.8 1.9-5.5 5.3-6.2 5-0.3-0.1-0.3-1.1 0.4-2.6z"/>
	<path id="Layer" class="s22" d="m265.1 168.2c0.8-2.1 2.2-3.9 4.1-5.1 1.9-1.3 4.2-1.9 6.5-1.9 1.7 0.2 2.6 0.7 2.6 1-0.1 0.7-4 0.6-7.6 2.9-3.6 2.4-5 5.9-5.7 5.7-0.3-0.1-0.5-1.1 0.1-2.6z"/>
	<path id="Layer" class="s22" d="m257.6 208.9q-0.8 0.4-1.7 0.6-0.7 0.1-1.3 0-0.6-0.2-1.1-0.6c-1.2-1.2-1.2-2.8-1.4-4.1q-0.5-4.3-1.1-9c-1.3-12.7-2-23.1-1.5-23.2 0.5 0 2 10.3 3.4 23 0.3 3.1 0.6 6.1 0.9 9 0.1 1.3 0.3 2.6 0.8 3.2 0.5 0.6 1.5 0.3 2.6-0.1 4.1-1.4 6.7-2.2 6.8-2 0.1 0.2-2.3 1.4-6.4 3.2z"/>
	<path id="Layer" class="s22" d="m278.7 205c1 2.5 0.9 5.2-0.2 7.7-1.1 2.5-3.1 4.5-5.5 5.7-2 1-3.3 0.9-3.4 0.6-0.3-0.6 4.4-2.4 6.5-7.1 2.1-4.8 0-9 0.6-9.3 0.3-0.2 1.3 0.6 2 2.4z"/>
	<path id="Layer" class="s22" d="m255.4 153.8c1.6-2 3.6-3.7 5.9-4.9 2.4-1.2 5-1.8 7.6-1.8 2 0.1 3.2 0.6 3.2 1.2 0 1.3-4.2 2.3-8.8 4.5-4.6 2.3-7.9 5.1-8.9 4.3-0.5-0.4-0.2-1.6 1-3.3z"/>
	<path id="Layer" class="s22" d="m217.9 168.1c0.9-1.8 2.5-3.4 4.3-4.4 1.8-1 4-1.4 6-1.2 1.6 0.2 2.5 0.9 2.5 1.5-0.2 1.2-3.2 1.9-6.4 3.6-3.2 1.7-5.4 3.9-6.5 3.4-0.5-0.3-0.6-1.3 0.1-2.9z"/>
	<path id="Layer" class="s22" d="m263.6 92.2c0.8 2.8 1 5.7 0.5 8.6-0.4 2.9-1.4 5.7-2.9 8.2-1.5 2.4-3.4 4.6-5.8 6.3-2.4 1.7-5 2.9-7.9 3.5-2.4 0.6-5 0.8-7.4 1.4l-7.6 9.1c-0.2 3.2 0.2 6.7-1.2 9.6-2.1 4.3-7 5.5-11.7 7.1l-14.2 18.9-1.9 1.5c-14.5 0.8-11.8-18.1-11.8-18.1 1.5-2.2 5.8-3.9 7.1-6.3 2.7-5.2 1.1-11.4 1.7-17.3 0.4-3.7 1.7-7.3 3.8-10.5 2-3.1 4.8-5.7 8.1-7.6 5.5-3 12.1-3.8 17.1-7.6 3.6-2.8 6.1-7 9.9-9.6 6.7-4.5 15.4-3 23.2-0.2q1.4 0.5 2.8 1z"/>
	<path id="Layer" class="s22" d="m241.5 111.9c3.2-2.6 9.7-8.1 10.3-12.2 1.3-8.7 6.8-16.6 14.6-19.4 4.1-1.4 8.5-1.5 12.6-0.1 4.1 1.3 7.7 4 10.2 7.5 9.3-3.9 20.8-1.9 29 4.9 4.1 3.6 7.3 8 9.3 13.1 1.9 5.1 2.7 10.5 2.1 15.9-0.4 2.8-1.1 5.7 0 8.4 1.4 3.2 4.8 4.7 7.6 6.7 7.8 5.3 11.7 15.5 11.6 25.1-0.2 9.5-1.5 13.3-5.9 17.1-8.6 7.4 9.9 24.6-6.6 31.7l-29.9-58.3-0.1 0.1c-0.6 1.1-1.5 2-2.6 2.6-1.1 0.7-2.3 1-3.6 0.9-16.7-1.1-15.6-18.6-12.3-21.9-5-1.4-9.7-3.5-14.2-6.1-4.4-2.8-11.9-8.3-13.4-13.4-3.4 1.5-20.1-1.4-18.7-2.6z"/>
	<path id="Layer" class="s15" d="m306.4 152.1c0.4-0.4 15.5-13.3 23 4.8 7.4 18.1-12.3 21.8-12.5 21.3-0.3-0.5-10.5-26.1-10.5-26.1z"/>
	<path id="Layer" class="s23" d="m319.6 169.1c0-0.1 0.4 0.1 1 0.1 0.9 0 1.8-0.3 2.4-0.9 1.6-1.5 2-5.2 0.7-8.5-0.6-1.6-1.5-3-2.8-4.2q-0.6-0.7-1.5-1.1-0.9-0.3-1.8-0.3c-0.4 0.1-0.8 0.3-1.1 0.6-0.2 0.3-0.4 0.7-0.4 1.1 0 0.6 0.2 0.9 0.1 1-0.1 0-0.5-0.2-0.7-1 0-0.5 0.1-1 0.3-1.4 0.3-0.6 0.9-1 1.5-1.2 0.8-0.1 1.7-0.1 2.4 0.1 0.8 0.3 1.5 0.7 2.1 1.3 1.4 1.3 2.5 2.8 3.1 4.6 1.4 3.7 1 7.9-1.3 9.8q-0.7 0.5-1.5 0.7-0.8 0.1-1.6 0c-0.7-0.3-1-0.6-0.9-0.7z"/>
	<path id="Layer" class="s23" d="m275 245.6c0 0 22.3-13.9 31.7-30.6 0 0 2.9 25.4-27.3 39.1z"/>
	<path id="Layer" class="s18" d="m317.6 329.7l7.7 1.6-7.7 2.2q-0.7 0.3-1.2 0.8-0.5 0.6-0.7 1.3l-1.9 9.2-2.1-9q-0.2-0.8-0.7-1.3-0.6-0.6-1.3-0.8l-7.7-1.7 7.9-2.2q0.7-0.3 1.2-0.8 0.5-0.6 0.6-1.4l1.8-8.8 2 8.8c0.1 0.5 0.4 1 0.7 1.3 0.4 0.4 0.9 0.7 1.4 0.8z"/>
	<path id="Layer" class="s18" d="m300.3 352.8l3.4 0.7-3.4 1q-0.4 0.1-0.6 0.3-0.2 0.3-0.3 0.6l-0.9 4.1-0.9-4q-0.1-0.4-0.3-0.6-0.3-0.3-0.6-0.3l-3.4-0.8 3.5-1q0.3-0.1 0.5-0.3 0.3-0.3 0.4-0.6l0.7-4 0.9 3.9q0.1 0.4 0.3 0.6 0.3 0.3 0.7 0.4z"/>
	<path id="Layer" class="s18" d="m402.3 240.7l3.5 0.7-3.5 1q-0.3 0.1-0.5 0.3-0.2 0.3-0.3 0.6l-0.9 4.1-0.9-4q-0.1-0.4-0.3-0.6-0.3-0.3-0.6-0.3l-3.4-0.8 3.5-1q0.3-0.1 0.5-0.4 0.3-0.2 0.3-0.5l0.8-4 0.9 3.9q0.1 0.4 0.3 0.6 0.3 0.3 0.6 0.4z"/>
	<path id="Layer" class="s24" d="m379.1 570.2h-379.1v-19.7h379.1z"/>
	<path id="Layer" class="s25" d="m379.1 570.2h-109.6v-19.7h109.6z"/>
	<path id="Layer" class="s26" d="m24.5 570.2q-0.2-0.4-0.4-0.9c-0.3-0.5-0.7-1.4-1.2-2.3-2.8-5.2-6.4-9.8-10.7-13.7-0.8-0.7-1.5-1.4-2-1.7q-0.4-0.3-0.7-0.7 0.4 0.3 0.8 0.6c0.5 0.4 1.2 0.9 2 1.7 4.4 3.8 8.1 8.4 10.7 13.7 0.5 1 0.9 1.8 1.2 2.4q0.2 0.4 0.3 0.9z"/>
	<path id="Layer" class="s26" d="m53.2 570.5q-2.8 0-5.5-0.5-2.9-0.7-5.7-1.8-3.4-1.4-6.5-3.5c-3.6-2.5-6.8-5.7-9.4-9.3q-1.6-2.3-2.8-4.8 0 0 0.2 0.4c0.1 0.2 0.4 0.6 0.6 0.9q1 1.7 2.2 3.4c2.6 3.5 5.8 6.7 9.5 9.2q3 2 6.3 3.5 2.8 1.1 5.7 1.7 1.1 0.3 2.3 0.5 0.8 0.1 1.7 0.2l1.1 0.1z"/>
	<path id="Layer" class="s26" d="m79.7 560.5c0 0-1.7 0.2-4.8 0.2-1.6 0-3.5 0-5.7-0.1q-1.6-0.2-3.5-0.4l-1.9-0.2q-1-0.2-2-0.5-0.5-0.2-0.9-0.6-0.5-0.3-0.7-0.8-0.2-0.6 0-1.2 0.2-0.6 0.6-1 1-0.7 2.2-0.9 1.1-0.3 2.4-0.6c7.1-1.6 14.6-1.8 21.8-0.6q3.1 0.4 6 1.4c1.1 0.3 1.9 1 2.5 1.9q0.4 0.7 0.4 1.6 0.1 0.8-0.2 1.6c-0.4 1-1.1 1.9-2 2.5q-1.3 0.9-2.9 1.2c-2 0.5-4 0.8-6 1.2q-5.7 0.9-11.5 1.1c-6.6 0.3-13.1-1-19.1-3.7-4-1.8-7.6-4.5-10.5-7.8q-1.2-1.4-2.2-2.8-0.7-1.1-0.7-1.1c0 0 0.3 0.4 0.8 1q1 1.5 2.2 2.8c2.9 3.3 6.5 5.8 10.5 7.6 6 2.7 12.5 3.9 19 3.6q5.8-0.1 11.5-1.1c1.9-0.3 3.9-0.7 5.9-1.1q1.5-0.4 2.8-1.2c0.9-0.6 1.5-1.4 1.9-2.4q0.2-0.7 0.2-1.5 0-0.8-0.4-1.5c-0.5-0.8-1.4-1.5-2.3-1.8q-2.9-0.9-5.9-1.4c-7.3-1.2-14.7-0.9-21.8 0.7q-1.2 0.2-2.4 0.5-1.1 0.2-2.1 0.9-0.4 0.3-0.5 0.9-0.2 0.5 0 1c0.2 0.6 0.7 1.1 1.4 1.4q0.9 0.4 1.9 0.5l1.9 0.2q1.9 0.3 3.5 0.4c2.2 0.2 4.2 0.2 5.7 0.2 1.5 0 2.8 0 3.6 0z"/>
	<path id="Layer" class="s26" d="m146.8 551.9h-0.5c-0.3 0-0.8-0.1-1.5-0.1q-2.8-0.1-5.5 0.6-3.9 1-7.6 3-4.4 2.4-8.5 5.3c-2.9 2-5.8 3.9-8.5 5.4q-3.6 2.1-7.6 3.3-2.6 0.8-5.4 0.9-1.1 0-2.1-0.1h0.6q0.7 0.1 1.5 0 2.7-0.1 5.4-0.9 3.9-1.3 7.5-3.3c2.7-1.6 5.5-3.5 8.4-5.5q4.2-2.9 8.6-5.3c2.4-1.3 5-2.3 7.7-3q2.7-0.6 5.5-0.5 1 0 2 0.2z"/>
	<path id="Layer" class="s26" d="m172.7 560.6l-1-0.3q-1.5-0.3-3.1-0.3-2.4-0.2-4.8 0.3-1.5 0.4-2.9 0.9c-1 0.3-2 1-2.6 1.9-0.3 0.5-0.5 1.1-0.4 1.7 0.1 0.6 0.4 1.2 0.8 1.6 0.9 1 2.1 1.7 3.3 2.1 2.9 0.9 5.9 1 8.8 0.2q2.3-0.6 4.5-1.5c1.6-0.6 3.1-1.4 4.4-2.5 0.6-0.5 1.2-1.2 1.5-1.9q0.6-1.2 0.6-2.5c0-1.8-0.7-3.5-1.9-4.8-1.2-1.3-2.8-2.2-4.5-2.7-1.7-0.5-3.4-0.7-5.1-0.5-3.3 0.4-6.5 1.2-9.5 2.4q-7.9 2.8-15.2 6.9-4.9 2.8-9.5 6.1-1.6 1.2-2.4 1.8c-0.6 0.4-0.9 0.6-0.9 0.6 0 0 1.1-0.9 3.3-2.5q4.5-3.3 9.4-6.1c4.9-2.8 9.9-5.2 15.2-7.1 3.1-1.2 6.3-2 9.6-2.4 1.7-0.1 3.5 0 5.2 0.5 1.7 0.5 3.3 1.4 4.6 2.8 1.2 1.3 2 3.1 2 4.9q0 1.4-0.6 2.6-0.6 1.2-1.7 2.1c-1.3 1-2.8 1.9-4.4 2.5q-2.2 0.9-4.6 1.5c-2.9 0.8-6 0.7-8.8-0.2-1.3-0.5-2.5-1.2-3.5-2.2-0.4-0.5-0.7-1.2-0.8-1.8-0.1-0.6 0-1.3 0.4-1.8 0.7-1 1.7-1.6 2.8-2q1.4-0.5 2.9-0.8 2.4-0.5 4.8-0.4 1.6 0.1 3.1 0.5c0.7 0.2 1 0.4 1 0.4z"/>
	<path id="Layer" class="s26" d="m203.8 570c0 0 0-0.3 0-1q0.1-1.4 0-2.8c-0.2-3-1.1-6-2.7-8.6-1.5-2.6-3.9-4.7-6.6-6.1q-1.7-0.7-3.6-1.2 1.9 0.2 3.7 1.1c2.8 1.3 5.2 3.4 6.8 6 1.6 2.7 2.5 5.7 2.6 8.8q0.2 2-0.2 3.8z"/>
	<path id="Layer" class="s26" d="m244.3 569.9q-2.9-0.4-5.8-1.2-3.1-0.9-6.2-2.1-3.6-1.5-7.1-3.4c-4.2-2.4-8.1-5.2-11.7-8.5-1.4-1.2-2.4-2.3-3.1-3l-0.8-0.9q-0.3-0.3-0.3-0.3 0.1 0 0.4 0.3l0.8 0.8c0.7 0.7 1.8 1.8 3.2 3 5.5 5 11.9 9 18.8 11.8q3 1.2 6.1 2.1c1.7 0.5 3.2 0.8 4.2 1l1.1 0.3q0.2 0 0.4 0.1z"/>
	<path id="Layer" class="s26" d="m272.8 564.4l-0.4-0.2c-0.2-0.1-0.6-0.3-1.1-0.6q-2-1-4.1-1.6-3.2-0.9-6.5-1.4c-2.5-0.4-5.2-0.6-8.1-1-5.7-0.7-10.8-2.4-13.9-4.7q-1.8-1.2-3.3-2.9c-0.7-0.9-1-1.4-1-1.4q0 0 0.3 0.3c0.2 0.3 0.4 0.6 0.8 1q1.5 1.6 3.3 2.9c3.1 2.2 8.2 3.8 13.9 4.5 2.9 0.4 5.6 0.7 8.1 1q3.3 0.5 6.5 1.4 2.2 0.7 4.2 1.8c0.8 0.5 1.3 0.9 1.3 0.9z"/>
</svg>