<svg version="1.2" xmlns="http://www.w3.org/2000/svg" viewBox="0 0 515 660" width="515" height="660">
	<title>covid-svg</title>
	<style>
		.s0 { fill: #383669 } 
		.s1 { fill: #504e83 } 
		.s2 { fill: #36346b } 
		.s3 { fill: #423f76 } 
		.s4 { fill: #8689aa } 
		.s5 { fill: #6e7191 } 
		.s6 { fill: #747799 } 
		.s7 { fill: #05c168 } 
		.s8 { opacity: .1;fill: #000000 } 
		.s9 { fill: #eff0f7 } 
		.s10 { fill: #312e72 } 
		.s11 { fill: #dcddeb } 
		.s12 { fill: #4e4b88 } 
		.s13 { fill: #7976ab } 
		.s14 { fill: #615f91 } 
		.s15 { fill: #7876b4 } 
		.s16 { fill: #4b3cfb } 
		.s17 { fill: #ffffff } 
		.s18 { fill: #ffbe9d } 
		.s19 { fill: #0075ff } 
		.s20 { fill: #eb996e } 
		.s21 { fill: #a0a3bd } 
		.s22 { opacity: .2;fill: #a0a3bd } 
		.s23 { opacity: .2;fill: #000000 } 
		.s24 { fill: #407bff } 
		.s25 { fill: #acaad1 } 
		.s26 { fill: none;stroke: #ffffff;stroke-width: 2 } 
	</style>
	<path id="Layer" class="s0" d="m64.5 745.4c0 0-23.1-119.5-23.2-144 0-34 26-47.6 26-47.6l-10.1-28.8h55.7l-8.8 28.6c0 0 29.3 15.6 25.2 50.8-7.6 66-19.8 141-19.8 141z"/>
	<path id="Layer" class="s1" d="m206.9 465.1h-230.4v-413.2h230.4z"/>
	<path id="Layer" class="s0" d="m195.3 452.7h-209.6v-388.8h209.6z"/>
	<path id="Layer" class="s2" d="m216.6 468.8l-9.7-3.8v-420.1h9.7z"/>
	<path id="Layer" class="s3" d="m37.1 315l54.5-50.5c6.9-6.4 15.9-13.3 24.8-10.1 4.2 1.6 7.4 5.2 11.6 6.9 8.4 3.5 17.9-1.6 24.4-7.9 6.4-6.4 11.4-14.3 19.2-19 7.8-4.6 19.9-4 23.8 4.2v55l-79.2 33.8z"/>
	<path id="Layer" class="s4" d="m-14.3 283.4c20-8.1 40.1-1.2 54.4 15 3 3.4 5.8 7.4 9.9 9.2 5.7 2.6 12.2 0.7 18.3 0 8.4-0.8 16.9 0.7 24.5 4.4 7.6 3.7 14.1 9.4 18.7 16.5l-67 32.9-58.8-0.5z"/>
	<path id="Layer" class="s5" d="m195.3 452.7h-209.6v-115.5c8.7-6.6 16.2-2 25.9 3 9.7 4.9 19.4 11.4 30.2 10.8 19.9-1.1 30.8-25 49.6-31.7 9.2-3.2 19.5-2 29-4.2 14.4-3.3 25.7-13.7 37.9-21.9 12.1-8.2 23.8-15.9 37-9.5z"/>
	<path id="Layer" class="s6" d="m127.9 209.4c-18.6-4.4-30.2-22.9-25.8-41.5 4.3-18.6 22.9-30.1 41.5-25.8 18.6 4.4 30.2 22.9 25.8 41.5-4.3 18.6-22.9 30.1-41.5 25.8z"/>
	<path id="Layer" class="s1" d="m199.8 179.9h-214.1v-4.2h214.1z"/>
	<path id="Layer" class="s1" d="m199.8 272.5h-214.1v-4.2h214.1z"/>
	<path id="Layer" class="s5" d="m199.8 365.1h-214.1v-4.2h214.1z"/>
	<path id="Layer" class="s1" d="m95.8 177.8v286h-10.6v-286z"/>
	<path id="Layer" class="s1" d="m30.8 177.8h-4.8v-113.9h4.8z"/>
	<path id="Layer" class="s1" d="m72.2 177.8h-4.8v-113.9h4.8z"/>
	<path id="Layer" class="s1" d="m113.6 177.8h-4.8v-113.9h4.8z"/>
	<path id="Layer" class="s1" d="m155 177.8h-4.8v-113.9h4.8z"/>
	<path id="Layer" class="s2" d="m216.6 51.9h-249.9v-11.3h249.9z"/>
	<path id="Layer" class="s5" d="m223.2 480.7h-263.4v-10.5h263.4z"/>
	<path id="Layer" class="s1" d="m206.9 465l16.3 5.2h-263.4l16.7-5.2z"/>
	<path id="Layer" class="s7" d="m168.3 298.3c1 8.4-1.7 17.1 1.1 25.1 2.7 8 10.5 13.9 11.5 22.3 0.9 7-3.2 13.7-3.8 20.8-0.7 9.5 5.2 18.5 5 28.1-0.1 5.2-1.9 10.2-5.3 14.1-3.4 4-8 6.6-13.2 7.6-5.1 0.9-10.3 0-14.9-2.6-4.5-2.5-8-6.5-9.9-11.4-2.2-5.7-2-11.9-3.3-17.9-2.7-12.2-11.5-23.3-10.4-35.8 0.9-10.6 8.9-19.5 10.1-30 0.9-8.3-2.5-16.5-3.3-24.8-0.7-8.3 3-18.5 11.3-19.8 15.1-1.2 23.4 9.2 25.1 24.3z"/>
	<path id="Layer" class="s7" d="m136.3 371.5c8.8 11.9 13.5 26.3 13.4 41.1q0.2 1-0.1 1.9-0.3 0.9-1 1.7c-1.2 1-3 0.4-4.5-0.2-13-5.5-23.9-14.9-31.2-27-7.2-12-13.3-28.4-11.9-42.3 14.1 4.2 26.6 12.9 35.3 24.8z"/>
	<g id="Layer" style="opacity: .1">
		<path id="Layer" class="s8" d="m136.3 371.5c8.8 11.9 13.5 26.3 13.4 41.1q0.2 1-0.1 1.9-0.3 0.9-1 1.7c-1.2 1-3 0.4-4.5-0.2-13-5.5-23.9-14.9-31.2-27-7.2-12-13.3-28.4-11.9-42.3 14.1 4.2 26.6 12.9 35.3 24.8z"/>
	</g>
	<path id="Layer" class="s9" d="m161.7 445.1q-0.2-0.3-0.4-0.7l-1-2.3c-0.8-2-2.1-4.9-3.7-8.4-8.3-18.3-18.5-35.7-30.4-51.9-2.3-3.1-4.1-5.6-5.5-7.3l-1.5-2q-0.3-0.3-0.5-0.7c0 0 0.2 0.2 0.6 0.6l1.6 1.9c1.4 1.6 3.3 4.1 5.7 7.2 12.2 16 22.5 33.5 30.5 52 1.6 3.5 2.7 6.4 3.5 8.5l0.9 2.3q0.1 0.4 0.2 0.8z"/>
	<path id="Layer" class="s9" d="m152.7 312.4q0.2 0.7 0.2 1.4 0.1 1.4 0.3 3.8c0.2 3.4 0.5 8.2 0.9 14.1 0.7 11.9 1.8 28.3 3.1 46.5 1.3 18.2 2.6 34.6 3.5 46.5 0.4 5.9 0.8 10.7 1.1 14.1 0.1 1.6 0.2 2.9 0.2 3.8q0.1 0.7 0 1.4-0.1-0.7-0.2-1.4-0.1-1.4-0.4-3.8c-0.3-3.4-0.8-8.2-1.3-14-1.1-11.9-2.4-28.4-3.7-46.6-1.3-18.1-2.3-34.6-2.9-46.5-0.3-5.9-0.5-10.7-0.6-14.1 0-1.5-0.1-2.9-0.2-3.8q0-0.7 0-1.4z"/>
	<path id="Layer" class="s10" d="m140.2 431.6c-0.1-3.4 2.6-6.3 6-6.3h22.6c3.3 0 6 2.7 6 6v19.6c0 4.4-1.8 8.7-4.9 11.8-3.1 3.1-7.4 4.9-11.8 4.9-4.3 0-8.5-1.6-11.6-4.6-3.1-2.9-5-7-5.2-11.2z"/>
	<path id="Layer" class="s11" d="m175 437.5c0 0-0.5-0.3-1.3-0.6-1.2-0.3-2.5-0.4-3.7-0.1q-2.7 0.7-5.3 1.9-1.6 0.6-3.3 0.9-1.8 0.2-3.7-0.2-3.4-0.9-6.6-2.2c-1.8-0.6-3.6-0.8-5.5-0.8-1.2 0.1-2.4 0.5-3.5 1.2-0.7 0.5-1 0.8-1.1 0.8q0.3-0.7 0.9-1.1c1.1-0.8 2.3-1.3 3.7-1.4 1.9-0.2 3.9 0 5.7 0.6 2.1 0.6 4.2 1.6 6.6 2.1q1.7 0.4 3.4 0.2 1.6-0.3 3.2-0.9 2.6-1.1 5.4-1.7c1.3-0.2 2.7 0 3.9 0.5 0.9 0.3 1.2 0.7 1.2 0.8z"/>
	<path id="Layer" class="s11" d="m175 440.5c0 0-0.5-0.3-1.3-0.6-1.2-0.3-2.5-0.4-3.7-0.2q-2.8 0.7-5.3 1.9-1.6 0.6-3.3 0.9-1.9 0.2-3.7-0.2-3.4-0.9-6.7-2.1c-1.7-0.7-3.6-0.9-5.4-0.8-1.3 0-2.5 0.4-3.5 1.1-0.7 0.5-1.1 0.9-1.1 0.8q0.3-0.6 0.9-1.1c1-0.8 2.3-1.3 3.6-1.4 2-0.2 3.9 0 5.8 0.6 2 0.7 4.2 1.6 6.5 2.1q1.7 0.4 3.5 0.2 1.6-0.2 3.1-0.8 2.6-1.2 5.5-1.7c1.3-0.3 2.6-0.1 3.9 0.4 0.4 0.1 0.9 0.5 1.2 0.9z"/>
	<path id="Layer" class="s11" d="m146.1 442.2c0 0.1-0.2 0.2-0.3 0.6-0.1 0.4 0.1 0.9 0.6 0.8 0.6-0.1 0.6-0.6 0.4-0.9-0.2-0.4-0.5-0.4-0.6-0.5 0-0.2 0.5-0.4 1 0.1q0.3 0.2 0.4 0.5 0.1 0.3 0.1 0.6-0.1 0.4-0.4 0.7-0.3 0.3-0.7 0.3-0.5 0.1-0.8-0.1-0.4-0.2-0.6-0.5-0.2-0.3-0.1-0.6 0-0.4 0.2-0.6c0.3-0.6 0.9-0.5 0.8-0.4z"/>
	<path id="Layer" class="s11" d="m158.8 435.5c-0.1 0 0.1-0.5 0.8-0.4q0.4 0.1 0.6 0.3 0.2 0.3 0.3 0.6 0 0.4-0.2 0.8-0.2 0.3-0.6 0.5-0.4 0.1-0.8 0-0.4-0.2-0.6-0.5-0.2-0.3-0.2-0.6 0-0.3 0.2-0.6c0.3-0.6 0.8-0.5 0.8-0.4 0 0.1-0.2 0.3-0.3 0.6q0 0.2 0 0.3 0 0.1 0.1 0.2 0.1 0.1 0.3 0.2 0.1 0 0.2 0 0.2-0.1 0.3-0.2 0-0.1 0-0.2 0.1-0.2 0-0.3-0.1-0.1-0.2-0.2c-0.4-0.1-0.6 0-0.7-0.1z"/>
	<path id="Layer" class="s11" d="m171 442c0-0.1 0.5-0.3 1 0.2q0.3 0.2 0.4 0.6 0 0.3-0.1 0.6-0.1 0.5-0.5 0.8-0.3 0.2-0.8 0.2-0.4 0-0.8-0.3-0.3-0.3-0.4-0.8-0.1-0.3 0.1-0.7 0.1-0.3 0.4-0.5c0.7-0.4 1.1 0 1 0.1-0.1 0.1-0.4 0-0.7 0.4q-0.1 0.1-0.1 0.2 0 0.2 0 0.3 0.1 0.2 0.2 0.3 0.2 0.1 0.3 0.2 0.2 0 0.4-0.1 0.1-0.2 0.2-0.3 0.1-0.2 0.1-0.3 0-0.2-0.1-0.4c-0.2-0.3-0.6-0.4-0.6-0.5z"/>
	<path id="Layer" class="s12" d="m385.5 171.8l-33.3 0.3-0.3-33.2 33.3-0.3z"/>
	<path id="Layer" class="s13" d="m385.1 147q-8.1 0.8-16.4 0.6-8.2 0.3-16.4-0.3 8.2-0.7 16.4-0.6 8.2-0.3 16.4 0.3z"/>
	<path id="Layer" class="s13" d="m375 157.3q-0.2-0.7-0.3-1.4c-0.4-1.3-1.2-2.4-2.3-3.2-0.8-0.5-1.7-0.9-2.7-1-1-0.1-1.9 0-2.8 0.3-1.1 0.4-2.1 1.2-2.8 2.2-0.6 0.9-1 2.1-1 3.3 0 1.2 0.4 2.3 1.1 3.3 0.7 0.9 1.7 1.7 2.8 2 1 0.4 1.9 0.5 2.9 0.3 0.9-0.1 1.9-0.5 2.6-1.1 1.1-0.8 1.9-1.9 2.3-3.2q0.1-0.7 0.3-1.4 0.2 0.8 0 1.5c-0.3 1.5-1 2.7-2.2 3.6-0.8 0.7-1.8 1.2-2.9 1.4-1.1 0.2-2.2 0.1-3.2-0.3-1.3-0.4-2.4-1.2-3.2-2.3-0.8-1.1-1.2-2.5-1.2-3.8 0-1.4 0.4-2.7 1.1-3.8 0.8-1.1 1.9-1.9 3.2-2.4 1-0.4 2.1-0.5 3.2-0.3 1.1 0.2 2.1 0.6 2.9 1.3 1.2 0.9 2 2.1 2.3 3.5q0.2 0.8-0.1 1.5z"/>
	<path id="Layer" class="s2" d="m514.1 182.5h-208.9v-10.6h208.9z"/>
	<path id="Layer" class="s2" d="m478.9 214.9h-6v-34.9h6z"/>
	<path id="Layer" class="s2" d="m347.1 215.5h-6.1v-36h6.1z"/>
	<path id="Layer" class="s7" d="m403.1 0.7c3.6 0.3 7 1.3 10.2 2.9 3.2 1.7 5.9 3.9 8.2 6.7 4.5 5.5 7.6 12 9.2 19 3.5 13.3 1.2 28.9-2.8 42-14.3-5.2-23-20.6-27-28.7-6.2-12.7-9.7-39.6 2.2-41.9z"/>
	<path id="Layer" class="s7" d="m448.5 87.6c-2.1-3.4-3.3-7.2-3.5-11.2-0.1-4 0.8-7.9 2.6-11.4 2-3.5 4.6-6.6 7.7-9 3.1-2.5 6.7-4.3 10.5-5.4 3.5-1 7.6-1.4 10.6 0.6 1.4 1.1 2.5 2.5 3.1 4.1 0.6 1.6 0.8 3.3 0.6 5-0.6 3.4-2 6.6-4.2 9.2-7.1 9.4-15.7 17.2-27.4 18.1z"/>
	<path id="Layer" class="s7" d="m433.4 102.8c-8.3 3.4-17.3 4.2-26.1 2.5-8.7-1.8-16.7-6.1-23-12.4-3-3.1-5.6-7.5-3.8-11.4 1.8-3.8 6.9-4.6 11.2-4.4 8.4 0.5 16.5 3 23.8 7.2 7.2 4.3 13.3 10.2 17.8 17.4"/>
	<path id="Layer" class="s11" d="m448.6 133.2q-0.4-1.4-0.6-2.9c-0.3-1.7-0.7-4.4-1.2-7.7-1.3-8.6-1.5-17.3-0.5-25.9 1-8.6 4.3-16.9 9.6-23.8q2.5-3.1 5.6-5.6c0.7-0.6 1.3-0.9 1.7-1.2q0.3-0.2 0.7-0.4c-2.8 2.3-5.3 4.8-7.5 7.6-5 6.9-8.2 15.1-9.2 23.6-0.9 8.5-0.8 17.1 0.3 25.6 0.4 3.2 0.7 5.8 0.9 7.8q0.2 1.4 0.2 2.9z"/>
	<path id="Layer" class="s11" d="m407.6 20.9q0.3 0.5 0.6 1.1l1.4 3.2c1.2 2.8 3 6.9 5.1 11.9 4.2 10.1 9.9 24.1 15.8 39.7 5.9 15.6 11 29.9 14.5 40.2 1.7 5.3 3.1 9.4 4 12.3q0.6 2.1 1.1 3.4 0.2 0.6 0.3 1.2-0.3-0.6-0.5-1.2-0.5-1.2-1.2-3.3l-4.4-12.1c-3.6-10.3-8.7-24.6-14.6-40.1-6-15.6-11.5-29.6-15.6-39.8l-4.8-12q-0.8-2-1.3-3.3-0.3-0.6-0.4-1.2z"/>
	<path id="Layer" class="s11" d="m398.4 88q1.4 0 2.8 0.2 1.6 0.1 3.2 0.4 2.1 0.4 4.2 1l2.4 0.6c0.8 0.3 1.7 0.6 2.5 0.9q2.8 1 5.5 2.3c4.1 2.1 8 4.5 11.5 7.4 3.6 2.9 6.9 6.2 9.7 9.8q1.9 2.4 3.4 5c0.5 0.8 1 1.5 1.4 2.3l1.2 2.2q0.9 1.9 1.7 3.9 0.7 1.5 1.1 3 0.5 1.3 0.7 2.7c-0.2 0-1.2-3.8-4.1-9.3l-1.2-2.2c-0.4-0.7-0.9-1.5-1.4-2.2-1-1.6-2.2-3.2-3.5-4.8-5.6-7.1-12.7-12.9-20.8-16.9-1.9-0.9-3.6-1.8-5.4-2.4-0.9-0.3-1.8-0.7-2.5-0.9l-2.4-0.7c-6-1.8-10-2-10-2.3z"/>
	<path id="Layer" class="s14" d="m421.3 120.3h51.7v30.2c0 2.8-0.6 5.6-1.7 8.2-1 2.6-2.6 4.9-4.6 6.9-2 2-4.4 3.6-7 4.6-2.6 1.1-5.3 1.7-8.2 1.7h-8.8c-5.6 0-11.1-2.3-15.1-6.3-4-4-6.3-9.4-6.3-15.1z"/>
	<path id="Layer" class="s15" d="m503.3 240.1c-0.5 0.6-1.2 0.9-2 1-0.7 0.1-1.5-0.1-2-0.6l-87.5-72.5 3.7-4.4 87.4 72.5c0.6 0.5 0.9 1.2 1 1.9 0.1 0.8-0.2 1.5-0.6 2.1z"/>
	<path id="Layer" class="s16" d="m438.8 186.6c0 0-5.4 13.6-10.8 13-5.5-0.6-7-9.3-7-9.3 0 0-4.5 7.8-9.1 4-4.7-3.7-3.4-12.9-3.4-12.9 0 0-7.7 4.8-10.3 0.6-3.7-5.6 7.3-15.3 7.3-15.3 0 0 7.9-21.2 13.8-20.7 4.9 0.5 3.8 8.5 3.8 8.5 0 0 4-5.6 8.8-5.7 4.8-0.1 3 11.9 3 11.9 0 0 8.5-5.3 11.4-0.7 2.9 4.5-5.6 11.6-5.6 11.6 0 0 11.3-2.8 10.2 3.7-1.1 6.5-12.1 11.3-12.1 11.3z"/>
	<path id="Layer" class="s17" d="m410.1 142.9c0 0 7-5.7 8.5-0.4 0.8 2.9-1.9 8.2-4.6 12.3 1.1 0.3 2.1 0.9 3 1.7 0.8 0.7 1.5 1.7 1.9 2.7 1.1 3.1-3 4.8-7.2 5.8 0.1 4.6-2.7 11.7-6.8 11.1-0.8 0-1.5-0.3-2.1-0.8-0.6-0.5-1-1.1-1.3-1.9-2.6 3.1-5.2 5.1-6.8 3.8-3.5-2.7-1.9-7.1-0.6-9.6-1.8 2.7-5.6 7.2-9.1 5.7-5-2-1.4-11.4-1.4-11.4 0 0-11.5 4-12.3-0.7-0.2-1.4-0.1-2.8 0.4-4.1 0.4-1.4 1.2-2.6 2.2-3.6 0 0-7.8 0.7-7.7-5.2 0.2-6 18.6-13.2 18.6-13.2 0 0 6.7-13.4 12.7-10.2 2.9 1.5 1.6 7.4 1.6 7.4 0 0 6.2-5 10.8-1.2 4.5 3.8 0.2 11.8 0.2 11.8z"/>
	<path id="Layer" class="s16" d="m383.4 108.3c3.2 5-1.6 10.3-1.6 10.3 0 0 9.4-3.9 11.9 1.4 1.2 2.4-0.8 5.1-3.8 7.6 2.7 0 5.1 0.7 5.4 2.8 0.8 5.1-13.4 7.5-13.4 7.5 0 0 3.7 7-3 9.6-1.1 0.4-2.3 0.4-3.4 0-1.1-0.3-2-1.1-2.6-2.1-2.4 3.9-5.2 7.4-7.8 7.1-5.9-0.6-2.9-9.6-2.9-9.6 0 0-5.8 5.5-10.4 4.1-4.6-1.4 0.9-12.3 0.9-12.3 0 0-9.7 2.5-11.1-2.8-1.4-5.2 4.6-8 4.6-8 0 0-7.5-6-4.4-11.8 3.1-5.8 15.2-3.2 15.2-3.2 0 0 5-12 10.1-9.8 5.1 2.2 5 9.8 5 9.8 0 0 8.2-5.6 11.3-0.6z"/>
	<path id="Layer" class="s18" d="m499.2 232.8c0 0 2.3-0.5 3.3 0.5 2.1 2.2-1.4 5-1.4 5q-5 4.9-10.5 9.2c0 0-56.4 71-67.3 75.8-8.6 3.9-60.6 3.1-80.8 2.7l-18.8 61.7 15.4 59.3-103.3 1.3 24.3-59.7-4-13.8-9.1-18.7c-22.1 49.4-37.5 126.7-42.8 153.1l0.4 2.4q0.2 6 1.7 12c0.4 1.9 1.2 3.8 2.3 5.5 1.3 2.2 2.8 4.2 4.6 6q0.6 0.4 0.8 1.1 0.3 0.7 0.1 1.4-0.2 0.7-0.8 1.2-0.5 0.4-1.2 0.5c-2.1-0.1-7.2-3.9-10.6-10.6-3.3-6.6-5.8 4.9-6.8 9-1 4.1-4.7 16.8-6.2 17.6-2.2 1-3.8-1.1-2.7-5.3 1.1-4.2 3.4-16.7 1.3-17.1-2.2-0.5-6.9 20.7-6.9 20.7 0 0-0.3 4.7-2.9 4.3-4.7-0.7 2-22.8 2.7-24.9 0.4-1.5-1.9-2-2.4-0.4-0.4 1.5-4.2 21.2-9 20.5-3.6-0.5 5.4-18.2 3.9-22.7-1.5-4.6-5.4 14.1-8.9 13.5-1.3-0.3-2.2-0.6 1.6-11q5-11.8 11.1-23c5.5-56.5 36.4-157.2 50-199.7 2.1-6.3 5.8-12 10.9-16.4 5-4.4 11.2-7.3 17.8-8.4 14.6-2.4 29.3-3.7 44.1-3.9 5.9-0.1 6.9-0.9 12.8-1.2q7 0 13.9 1c13.5 1.4 81 8.4 84.3 5.2 3.8-3.5 55.7-53.3 55.7-53.3h0.2q2-5.2 3.2-10.7c0.4-2 0.5-4 0.3-6-0.2-2.5-0.8-4.9-1.7-7.3-1-2.1 1-4.3 2.9-3.3 1.8 0.9 4.8 6.5 5.1 14 0.2 7.4 9.9-5.3 9.9-5.3 2.3-1.1 6.4-1.2 4.9 7.6 1.5 0 3.1 0.3 4.5 0.8q0.3 0.2 0.5 0.5 0.2 0.4 0.2 0.7-0.2 1.7 0 3.4c0 0 3-0.2 3.4 1.1q0.3 2.1 0 4.1z"/>
	<path id="Layer" class="s19" d="m199.1 393.9c0 0 21.6-86.8 34.7-96.9 13-10.1 14.9-15.9 46.3-16.9 0 0 29 4.4 32.3-4.6l92.2 9.2 2 43.4-64.2-2.3q1.7 8.2 2.1 16.6c0.4 6.2-11.5 18.3-11.5 18.3 0 0-6 17.9-4.2 23.4 1.8 5.4 10.5 39.7 10.3 54.4l-105.5 3.2c0 0-2.3-13.3 15.2-39.8q3.7-5.9 6.5-12.3c2-4.9-5.6-46.1-5.6-46.1 0 0-15.4 50.5-18.4 60.7z"/>
	<path id="Layer" class="s17" d="m293.7 393.9q-2.8 0.5-5.6 0.3c-3.4 0-8.1-0.2-13.4-0.7-5.2-0.6-9.9-1.3-13.2-2q-2.8-0.3-5.4-1.3 2.8 0 5.5 0.5c3.4 0.4 8.1 1 13.3 1.5 5.2 0.5 9.9 0.9 13.3 1.1q2.8 0.1 5.5 0.6z"/>
	<path id="Layer" class="s17" d="m300.9 385q-2.7 1.3-5.7 1.9c-9.5 2.5-19.3 3.7-29.1 3.5q-3.1 0.1-6.1-0.6 3-0.4 6.1-0.3c3.7-0.1 8.8-0.4 14.5-1 5.7-0.7 10.7-1.6 14.3-2.4q3-0.8 6-1.1z"/>
	<path id="Layer" class="s17" d="m336.4 345q-0.1 2.7-0.7 5.4c-0.6 3.3-1.6 7.8-2.8 12.7-1.2 5-2.4 9.5-3.4 12.6q-0.7 2.7-1.9 5.1 0.2-2.7 1-5.3c0.9-3.7 1.9-8 3.1-12.6 1.1-4.7 2.2-9 3.1-12.7q0.5-2.7 1.6-5.2z"/>
	<path id="Layer" class="s17" d="m232.4 398.2q-8.2-1.3-16.2-3.8-8.2-1.9-16-5 8.3 1.3 16.3 3.8 8.1 1.9 15.9 5z"/>
	<path id="Layer" class="s17" d="m343.6 325.2q-1.4 0.3-2.8 0c-2.4-0.2-4.9-0.8-7.2-1.7-3.9-1.5-7.5-3.7-10.4-6.6-3-2.9-5.3-6.4-6.8-10.3-1.7-4.2-2.5-8.8-2.2-13.4 0.1-3.7 1.3-7.4 3.3-10.5 1.4-2.2 3.6-3.8 6-4.5q1-0.3 2-0.2 0.8 0 0.8 0c0 0-1 0-2.6 0.6-2.3 0.8-4.2 2.4-5.5 4.4-3.2 5.1-4.1 14.4-0.7 23.1 1.6 4.1 4.1 7.7 7.4 10.7 2.6 2.4 5.7 4.4 9 5.8q4.7 1.9 9.6 2.6z"/>
	<path id="Layer" class="s17" d="m399 327.3q-0.9-10.9-0.6-21.9-0.2-11 0.7-21.9 0.9 10.9 0.6 21.9 0.3 11-0.7 21.9z"/>
	<path id="Layer" class="s18" d="m309.6 283c-1.4 1.3-3.2 1.9-5 1.9l-24.3-1.6-4-67.6 26.4-20.8 23.8 12.2c0 0 0.8 31.2 0 44.7-0.8 13.6-14 15-14 15 0 0-0.5 6-0.8 11.3 0 1.9-0.8 3.6-2.2 4.9z"/>
	<path id="Layer" class="s20" d="m314.1 241.1c0 0 0 0.3-0.2 0.6q-0.3 0.3-0.7 0.5-0.4 0.2-0.8 0.2c-1.5 0-3-1.8-3.5-3.8-0.3-1-0.3-2.1 0-3q0-0.7 0.4-1.2 0.4-0.6 1-0.9c0.3-0.1 0.7-0.1 1 0q0.4 0.2 0.5 0.6c0.2 0.4 0 0.6 0 0.6 0 0 0-0.2-0.2-0.5q-0.2-0.2-0.5-0.3-0.3-0.1-0.6 0.1-0.5 0.3-0.7 0.7-0.3 0.5-0.3 1c-0.2 0.9-0.2 1.8 0 2.7 0.5 1.8 1.8 3.3 2.9 3.4q0.3 0.1 0.7 0 0.3-0.1 0.6-0.3c0.3-0.2 0.3-0.4 0.4-0.4z"/>
	<path id="Layer" class="s5" d="m332.8 212.6c-2.6 5.7-6.4 11.1-11.9 13.7-2.6 1.2-5.4 1.8-8.1 2.9-1.4 0.5-2.6 1.3-3.7 2.2-1 1-1.9 2.2-2.4 3.6-0.4 1.2-0.5 2.5-0.2 3.8 0.3 1.2 0.9 2.4 1.8 3.3 0.9 0.9 2 1.5 3.2 1.7 1.2 0.3 2.5 0.2 3.7-0.2q0 1.7-0.4 3.4c-0.1 0.4-0.2 0.6-0.3 1.1-0.1 0.5-0.2 1-0.4 1.5-8 28.3-9.8 29.9-3.5 60.4 2 9.6 4.7 19.5 3 29.2-1.7 8.6-6.4 16.3-13.2 21.9-6.7 5.5-14.5 9.3-22.9 11.3-11.2 3.2-23 3.1-34.2-0.3-5.6-1.8-10.8-4.7-15.2-8.5-4.5-3.8-8.1-8.5-10.7-13.8-2.5-5.4-3.7-11.4-3.3-17.4 0.4-6 2.3-11.8 5.6-16.8 3.2-4.4 7.5-8.1 9.5-13.2 2.2-5.8 1-12.6 3.4-18.3 2.7-6.6 9.3-10.3 14-15.6 8.4-9.5 12.1-27.4 12.8-40.3 0.2-3.8 1-7.5 2.3-11 2.1-5.7 5.2-10.3 10.5-9.9 0-9.9 10.8-15.7 19.8-19 9-3.3 18.9-2.2 28.1 0.4 6.1 1.7 12.7 4.8 14.5 11.1 1 4.3 0.3 8.9-1.8 12.8z"/>
	<path id="Layer" class="s5" d="m233.6 441.7l105.5-3.2 45.9 178.9-8.4 205.3h-55.8l6.8-200.9-40.8-124.6 6.3 333.5-56.4 0.8-5.9-313.4c-0.3-8.7-3.1-28.4-2.1-37z"/>
	<path id="Layer" class="s21" d="m300.8 499.8q-2.6 0.1-5.1-0.3c-3.2-0.4-7.6-1.1-12.3-2-4.8-1-9.1-2.1-12.2-3q-2.5-0.5-4.8-1.7c0-0.3 7.8 1.5 17.3 3.5 9.5 1.9 17.2 3.1 17.1 3.5z"/>
	<path id="Layer" class="s21" d="m285.3 821.1c-0.3 0-1.8-72.8-3.3-162.7-1.5-89.8-2.4-162.7-2.1-162.7 0.3 0 1.9 72.8 3.3 162.7 1.5 89.9 2.5 162.7 2.1 162.7z"/>
	<path id="Layer" class="s21" d="m368.5 811.4q0-0.4 0-0.9v-2.9c0-2.5 0.2-6.2 0.3-10.9 0.4-9.5 0.8-23.3 1.4-40.2 1.3-34 3.1-80.9 5.1-132.7q0-0.7 0-1.4v0.2c-12.5-49.9-23.8-95.2-32-127.9l-9.5-38.8c-1.1-4.5-1.9-8-2.5-10.5-0.3-1.2-0.5-2.1-0.7-2.8q-0.1-0.4-0.1-0.9 0.2 0.4 0.3 0.9 0.2 1 0.7 2.7c0.7 2.4 1.6 6 2.8 10.5 2.4 9.2 5.7 22.4 9.9 38.7 8.3 32.7 19.7 77.9 32.3 127.8v0.2c0 0.4 0 0.9 0 1.4-2.1 51.7-4 98.6-5.4 132.6-0.7 16.9-1.4 30.6-1.8 40.2-0.2 4.7-0.4 8.4-0.5 10.9 0 1.2-0.2 2.2-0.2 2.9q0 0.5-0.1 0.9z"/>
	<path id="Layer" class="s21" d="m350.3 618.2q-6 2-12.3 2.8c-5.2 0.9-6.7 0.8-8.7 0.9v-0.5q1 0.3 1 0.4c0 0.1-0.4 0-1.1 0h-1.4l1.4-0.4c1.9-0.5 3.4-0.8 8.6-1.7q6.2-1.3 12.5-1.5z"/>
	<path id="Layer" class="s21" d="m349.3 625.1q-5.5 0.2-11.1-0.5c-3.7-0.1-6.9-0.6-10.6-1.3 7.5-0.6 14.5 0 21.7 1.8z"/>
	<path id="Layer" class="s22" d="m233.2 444.6l0.4-2.9c34.5-1.9 71-1.3 105.5-3.2-26.7 6.5-55.5 9.3-82.8 12.3-4.2 0.6-8.5 0.7-12.7 0.2-2.1-0.1-4-0.7-5.8-1.7-1.8-0.9-3.4-2.2-4.7-3.8"/>
	<g id="Layer" style="opacity: .2">
		<path id="Layer" class="s23" d="m286.8 497.2l1.4 72.2-19.5-75.4z"/>
	</g>
	<path id="Layer" class="s24" d="m471 91.1c6.2 2.3 3.7 9.8 3.7 9.8 0 0 5.1-1.6 7.5 2 2.4 3.6-6.1 4.8-4.7 6.1 1.3 1.2 6.9 4 2.9 7.2-4 3.1-9.4-1.7-9.4-1.7 0 0-1.2 2.9-5.9 3.6-4.6 0.7-2.8-7.1-2.8-7.1 0 0-3 4-5-2.3-0.4-0.8-0.5-1.6-0.5-2.4 0.1-0.9 0.3-1.7 0.7-2.4 0.4-0.7 1-1.3 1.6-1.8 0.7-0.5 1.5-0.8 2.3-1 0 0-2.9-5.5-0.4-6.9 2.5-1.4 7.2 3.1 7.2 3.1 0 0-0.3-7.4 2.8-6.2z"/>
	<path id="Layer" class="s25" d="m471 91.1c6.2 2.3 3.7 9.8 3.7 9.8 0 0 5.1-1.6 7.5 2 2.4 3.6-6.1 4.8-4.7 6.1 1.3 1.2 6.9 4 2.9 7.2-4 3.1-9.4-1.7-9.4-1.7 0 0-1.2 2.9-5.9 3.6-4.6 0.7-2.8-7.1-2.8-7.1 0 0-3 4-5-2.3-0.4-0.8-0.5-1.6-0.5-2.4 0.1-0.9 0.3-1.7 0.7-2.4 0.4-0.7 1-1.3 1.6-1.8 0.7-0.5 1.5-0.8 2.3-1 0 0-2.9-5.5-0.4-6.9 2.5-1.4 7.2 3.1 7.2 3.1 0 0-0.3-7.4 2.8-6.2z"/>
	<path id="Layer" class="s24" d="m514 122.9c1.2 2.8-2.1 4.3-2.1 4.3 0 0 2.1 1.2 1.7 3.2-0.4 1.9-3.5-0.5-3.5 0.3 0 0.9 0.8 3.7-1.5 3.3-2.3-0.4-2.4-3.7-2.4-3.7q-0.9 0.2-1.7 0-0.8-0.2-1.4-0.8c-1.7-1.3 1.5-3.1 1.5-3.1 0 0-2.3 0.3-0.8-2.5q0.2-0.5 0.6-0.9 0.5-0.4 1-0.5 0.6-0.1 1.2 0 0.5 0.1 1 0.4c0 0 1-2.7 2.2-2.3 1.3 0.4 1.2 3.4 1.2 3.4 0 0 2.4-2.5 3-1.1z"/>
	<path id="Layer" class="s25" d="m514 122.9c1.2 2.8-2.1 4.3-2.1 4.3 0 0 2.1 1.2 1.7 3.2-0.4 1.9-3.5-0.5-3.5 0.3 0 0.9 0.8 3.7-1.5 3.3-2.3-0.4-2.4-3.7-2.4-3.7q-0.9 0.2-1.7 0-0.8-0.2-1.4-0.8c-1.7-1.3 1.5-3.1 1.5-3.1 0 0-2.3 0.3-0.8-2.5q0.2-0.5 0.6-0.9 0.5-0.4 1-0.5 0.6-0.1 1.2 0 0.5 0.1 1 0.4c0 0 1-2.7 2.2-2.3 1.3 0.4 1.2 3.4 1.2 3.4 0 0 2.4-2.5 3-1.1z"/>
	<path id="Layer" class="s24" d="m480 149.6c-3.2 3-7-0.7-7-0.7 0 0-0.5 3.5-3.4 3.9-2.9 0.3-1.1-5.1-2.3-4.6-1.1 0.4-4.5 2.9-5.1-0.5-0.7-3.3 3.8-5.1 3.8-5.1-0.5-0.7-0.7-1.4-0.8-2.2-0.1-0.8 0.1-1.6 0.4-2.4 1-3 5.1 0.5 5.1 0.5 0 0-1.6-3 2.9-2.4q0.8 0.1 1.5 0.5 0.8 0.4 1.3 1.1 0.4 0.7 0.6 1.5 0.1 0.9-0.1 1.7c0 0 4.2 0 4.2 1.8 0.1 1.8-4 3.3-4 3.3 0 0 4.6 2.1 2.9 3.6z"/>
	<path id="Layer" class="s25" d="m480 149.6c-3.2 3-7-0.7-7-0.7 0 0-0.5 3.5-3.4 3.9-2.9 0.3-1.1-5.1-2.3-4.6-1.1 0.4-4.5 2.9-5.1-0.5-0.7-3.3 3.8-5.1 3.8-5.1-0.5-0.7-0.7-1.4-0.8-2.2-0.1-0.8 0.1-1.6 0.4-2.4 1-3 5.1 0.5 5.1 0.5 0 0-1.6-3 2.9-2.4q0.8 0.1 1.5 0.5 0.8 0.4 1.3 1.1 0.4 0.7 0.6 1.5 0.1 0.9-0.1 1.7c0 0 4.2 0 4.2 1.8 0.1 1.8-4 3.3-4 3.3 0 0 4.6 2.1 2.9 3.6z"/>
	<path id="Layer" class="s17" d="m317.5 265.6c-2.4 0.4-6-8-6-12.5v-19c2.8 3.4 9.8 9.6 15 8 2.5 15.5-6 23-9 23.5z"/>
	<path id="Layer" class="s26" d="m311.5 244.1c-3.5 0-7.5-5.5-5-10 2-3.6 5.7 2 6.5 3.5"/>
</svg>