<svg width="241" height="211" viewBox="0 0 241 211" fill="none" xmlns="http://www.w3.org/2000/svg">
<g filter="url(#filter0_i_2_162)">
<path d="M42.3979 32.7224C35.0125 32.7224 29.0181 38.694 29.0181 46.0656C29.0181 53.4229 35.0125 59.3945 42.3979 59.3945C49.7977 59.3945 55.7921 53.4229 55.7921 46.0656C55.7921 38.694 49.7977 32.7224 42.3979 32.7224Z" fill="white"/>
</g>
<g filter="url(#filter1_i_2_162)">
<path d="M55.7924 67.0088C55.7924 79.6377 45.5101 89.8665 32.8473 89.8665C20.1701 89.8665 9.90222 79.6377 9.90222 67.0088C9.90222 54.3942 20.1701 44.1511 32.8473 44.1511C45.5101 44.1511 55.7924 54.3942 55.7924 67.0088Z" fill="white"/>
</g>
<g filter="url(#filter2_i_2_162)">
<path d="M94.025 55.5799C94.025 70.3089 82.0502 82.252 67.265 82.252C52.4798 82.252 40.491 70.3089 40.491 55.5799C40.491 40.851 52.4798 28.9221 67.265 28.9221C82.0502 28.9221 94.025 40.851 94.025 55.5799Z" fill="white"/>
</g>
<path d="M79.8972 149.808H12.998C9.84304 149.808 7.21873 147.365 7.00363 144.236L1.59714 69.1918C1.48244 67.4632 2.85914 65.9917 4.60874 65.9917H88.301C90.05 65.9917 91.427 67.4632 91.298 69.1918L85.906 144.236C85.677 147.365 83.067 149.808 79.8972 149.808Z" fill="#133578"/>
<path d="M84.587 143.211H17.688C14.5331 143.211 11.9087 140.768 11.6936 137.639L6.2872 62.5946C6.1725 60.866 7.5492 59.3945 9.2987 59.3945H92.991C94.74 59.3945 96.117 60.866 95.988 62.5946L90.596 137.639C90.367 140.768 87.757 143.211 84.587 143.211Z" fill="#1D53BB"/>
<path d="M93.207 77.3521H9.08423C7.42073 77.3521 6.07263 76.0092 6.07263 74.3663V62.3946C6.07263 60.7374 7.42073 59.3945 9.08423 59.3945H93.207C94.87 59.3945 96.218 60.7374 96.218 62.3946V74.3663C96.218 76.0092 94.87 77.3521 93.207 77.3521Z" fill="#0075FF"/>
<g filter="url(#filter3_i_2_162)">
<path d="M18.7313 17.4196C18.7313 21.634 15.3039 25.0341 11.0877 25.0341C6.85721 25.0341 3.42981 21.634 3.42981 17.4196C3.42981 13.2053 6.85721 9.80518 11.0877 9.80518C15.3039 9.80518 18.7313 13.2053 18.7313 17.4196Z" fill="url(#paint0_radial_2_162)"/>
</g>
<g filter="url(#filter4_i_2_162)">
<path d="M48.4759 15.844C48.4759 19.1875 45.7565 21.8849 42.4114 21.8849C39.0548 21.8849 36.3354 19.1875 36.3354 15.844C36.3354 12.5005 39.0548 9.80298 42.4114 9.80298C45.7565 9.80298 48.4759 12.5005 48.4759 15.844Z" fill="url(#paint1_radial_2_162)"/>
</g>
<g filter="url(#filter5_i_2_162)">
<path d="M17.1511 38.7634C17.1511 42.1069 14.4317 44.8044 11.0865 44.8044C7.73002 44.8044 5.01062 42.1069 5.01062 38.7634C5.01062 35.4199 7.73002 32.7224 11.0865 32.7224C14.4317 32.7224 17.1511 35.4199 17.1511 38.7634Z" fill="url(#paint2_radial_2_162)"/>
</g>
<path d="M1.11062 111.853C2.53032 113.468 5.01122 113.596 6.58872 112.125L50.9014 71.2808C52.4932 69.895 52.6509 67.4807 51.2599 65.9092C49.8689 64.3092 47.4596 64.1663 45.8678 65.5378L1.38302 106.553C-0.137081 107.953 -0.251781 110.296 1.11062 111.853Z" fill="#133578"/>
<path fill-rule="evenodd" clip-rule="evenodd" d="M188.095 174.444V163.887C188.095 160.981 190.457 158.629 193.394 158.629H209.269C212.187 158.629 214.548 160.981 214.548 163.887V174.444H225.144C230.979 174.444 235.722 179.149 235.722 184.981V195.518C235.722 198.443 233.36 200.796 230.423 200.796H172.219C169.302 200.796 166.921 198.443 166.921 195.518V184.981C166.921 179.149 171.664 174.444 177.518 174.444H188.095Z" fill="#133578"/>
<path fill-rule="evenodd" clip-rule="evenodd" d="M106.878 131.644V134.826C76.1913 123.517 32.799 117.063 32.799 161.495V167.144C26.413 171.387 22.202 178.625 22.202 186.839C22.202 199.926 32.8585 210.522 45.9756 210.522C51.5277 210.522 56.639 208.624 60.6879 205.442H124.401C141.03 205.442 154.505 192.196 154.505 175.848C154.505 163.176 145.158 155.94 134.065 147.815C133.834 147.659 133.589 147.496 133.331 147.328V131.644C133.331 128.719 130.969 126.366 128.052 126.366H112.176C109.239 126.366 106.878 128.719 106.878 131.644Z" fill="#133578"/>
<path d="M127.232 125.21V47.9139C127.232 26.0891 144.993 8.37622 166.921 8.37622C188.829 8.37622 206.61 26.0891 206.61 47.9139V174.434" stroke="#133578" stroke-width="15.8151" stroke-miterlimit="10"/>
<path d="M140.449 142.804H113.996V121.731C113.996 118.805 116.357 116.452 119.294 116.452H135.17C138.087 116.452 140.449 118.805 140.449 121.731V142.804Z" fill="#1D53BB"/>
<path d="M219.826 179.712H193.373V158.619C193.373 155.713 195.735 153.361 198.672 153.361H214.547C217.464 153.361 219.826 155.713 219.826 158.619V179.712Z" fill="#1D53BB"/>
<path d="M235.701 195.528H177.498C174.581 195.528 172.199 193.175 172.199 190.249V179.713C172.199 173.881 176.942 169.176 182.796 169.176H230.423C236.257 169.176 241 173.881 241 179.713V190.249C241 193.175 238.638 195.528 235.701 195.528Z" fill="#0075FF"/>
<path d="M39.9169 195.528H131.519C148.148 195.528 161.622 182.283 161.622 165.934C161.622 153.262 152.276 146.027 141.183 137.902C125.149 126.989 39.9169 89.3099 39.9169 151.582V195.528Z" fill="#0075FF"/>
<path d="M76.8671 176.925C76.8671 190.012 66.2107 200.608 53.0935 200.608C39.9764 200.608 29.3199 190.012 29.3199 176.925C29.3199 163.858 39.9764 153.262 53.0935 153.262C66.2107 153.262 76.8671 163.858 76.8671 176.925Z" fill="#1D53BB"/>
<defs>
<filter id="filter0_i_2_162" x="29.0181" y="32.7224" width="26.774" height="26.6721" filterUnits="userSpaceOnUse" color-interpolation-filters="sRGB">
<feFlood flood-opacity="0" result="BackgroundImageFix"/>
<feBlend mode="normal" in="SourceGraphic" in2="BackgroundImageFix" result="shape"/>
<feColorMatrix in="SourceAlpha" type="matrix" values="0 0 0 0 0 0 0 0 0 0 0 0 0 0 0 0 0 0 127 0" result="hardAlpha"/>
<feOffset/>
<feGaussianBlur stdDeviation="2"/>
<feComposite in2="hardAlpha" operator="arithmetic" k2="-1" k3="1"/>
<feColorMatrix type="matrix" values="0 0 0 0 0 0 0 0 0 0 0 0 0 0 0 0 0 0 0.11 0"/>
<feBlend mode="normal" in2="shape" result="effect1_innerShadow_2_162"/>
</filter>
<filter id="filter1_i_2_162" x="9.90222" y="44.1511" width="45.8902" height="45.7154" filterUnits="userSpaceOnUse" color-interpolation-filters="sRGB">
<feFlood flood-opacity="0" result="BackgroundImageFix"/>
<feBlend mode="normal" in="SourceGraphic" in2="BackgroundImageFix" result="shape"/>
<feColorMatrix in="SourceAlpha" type="matrix" values="0 0 0 0 0 0 0 0 0 0 0 0 0 0 0 0 0 0 127 0" result="hardAlpha"/>
<feOffset/>
<feGaussianBlur stdDeviation="2"/>
<feComposite in2="hardAlpha" operator="arithmetic" k2="-1" k3="1"/>
<feColorMatrix type="matrix" values="0 0 0 0 0 0 0 0 0 0 0 0 0 0 0 0 0 0 0.11 0"/>
<feBlend mode="normal" in2="shape" result="effect1_innerShadow_2_162"/>
</filter>
<filter id="filter2_i_2_162" x="40.491" y="28.9221" width="53.534" height="53.3299" filterUnits="userSpaceOnUse" color-interpolation-filters="sRGB">
<feFlood flood-opacity="0" result="BackgroundImageFix"/>
<feBlend mode="normal" in="SourceGraphic" in2="BackgroundImageFix" result="shape"/>
<feColorMatrix in="SourceAlpha" type="matrix" values="0 0 0 0 0 0 0 0 0 0 0 0 0 0 0 0 0 0 127 0" result="hardAlpha"/>
<feOffset/>
<feGaussianBlur stdDeviation="2"/>
<feComposite in2="hardAlpha" operator="arithmetic" k2="-1" k3="1"/>
<feColorMatrix type="matrix" values="0 0 0 0 0 0 0 0 0 0 0 0 0 0 0 0 0 0 0.11 0"/>
<feBlend mode="normal" in2="shape" result="effect1_innerShadow_2_162"/>
</filter>
<filter id="filter3_i_2_162" x="3.42981" y="9.80518" width="15.3015" height="15.2289" filterUnits="userSpaceOnUse" color-interpolation-filters="sRGB">
<feFlood flood-opacity="0" result="BackgroundImageFix"/>
<feBlend mode="normal" in="SourceGraphic" in2="BackgroundImageFix" result="shape"/>
<feColorMatrix in="SourceAlpha" type="matrix" values="0 0 0 0 0 0 0 0 0 0 0 0 0 0 0 0 0 0 127 0" result="hardAlpha"/>
<feOffset/>
<feGaussianBlur stdDeviation="2"/>
<feComposite in2="hardAlpha" operator="arithmetic" k2="-1" k3="1"/>
<feColorMatrix type="matrix" values="0 0 0 0 0 0 0 0 0 0 0 0 0 0 0 0 0 0 0.11 0"/>
<feBlend mode="normal" in2="shape" result="effect1_innerShadow_2_162"/>
</filter>
<filter id="filter4_i_2_162" x="36.3354" y="9.80298" width="12.1405" height="12.0819" filterUnits="userSpaceOnUse" color-interpolation-filters="sRGB">
<feFlood flood-opacity="0" result="BackgroundImageFix"/>
<feBlend mode="normal" in="SourceGraphic" in2="BackgroundImageFix" result="shape"/>
<feColorMatrix in="SourceAlpha" type="matrix" values="0 0 0 0 0 0 0 0 0 0 0 0 0 0 0 0 0 0 127 0" result="hardAlpha"/>
<feOffset/>
<feGaussianBlur stdDeviation="2"/>
<feComposite in2="hardAlpha" operator="arithmetic" k2="-1" k3="1"/>
<feColorMatrix type="matrix" values="0 0 0 0 0 0 0 0 0 0 0 0 0 0 0 0 0 0 0.11 0"/>
<feBlend mode="normal" in2="shape" result="effect1_innerShadow_2_162"/>
</filter>
<filter id="filter5_i_2_162" x="5.01062" y="32.7224" width="12.1405" height="12.082" filterUnits="userSpaceOnUse" color-interpolation-filters="sRGB">
<feFlood flood-opacity="0" result="BackgroundImageFix"/>
<feBlend mode="normal" in="SourceGraphic" in2="BackgroundImageFix" result="shape"/>
<feColorMatrix in="SourceAlpha" type="matrix" values="0 0 0 0 0 0 0 0 0 0 0 0 0 0 0 0 0 0 127 0" result="hardAlpha"/>
<feOffset/>
<feGaussianBlur stdDeviation="2"/>
<feComposite in2="hardAlpha" operator="arithmetic" k2="-1" k3="1"/>
<feColorMatrix type="matrix" values="0 0 0 0 0 0 0 0 0 0 0 0 0 0 0 0 0 0 0.11 0"/>
<feBlend mode="normal" in2="shape" result="effect1_innerShadow_2_162"/>
</filter>
<radialGradient id="paint0_radial_2_162" cx="0" cy="0" r="1" gradientUnits="userSpaceOnUse" gradientTransform="translate(11.0806 17.4196) rotate(90) scale(7.61447 7.65075)">
<stop stop-color="#268AFF"/>
<stop offset="1" stop-color="#0075FF"/>
</radialGradient>
<radialGradient id="paint1_radial_2_162" cx="0" cy="0" r="1" gradientUnits="userSpaceOnUse" gradientTransform="translate(42.4057 15.844) rotate(90) scale(6.04099 6.07024)">
<stop stop-color="#268AFF"/>
<stop offset="1" stop-color="#0075FF"/>
</radialGradient>
<radialGradient id="paint2_radial_2_162" cx="0" cy="0" r="1" gradientUnits="userSpaceOnUse" gradientTransform="translate(11.0809 38.7634) rotate(90) scale(6.04099 6.07024)">
<stop stop-color="#268AFF"/>
<stop offset="1" stop-color="#0075FF"/>
</radialGradient>
</defs>
</svg>
