<svg width="556" height="832" viewBox="0 0 556 832" fill="none" xmlns="http://www.w3.org/2000/svg">
<path d="M105.479 745.438C105.479 745.438 82.3947 625.944 82.3332 601.375C82.2593 567.37 108.333 553.832 108.333 553.832L98.2065 525H153.886L145.088 553.636C145.088 553.636 174.436 569.164 170.338 604.433C162.684 670.366 150.502 745.389 150.502 745.389L105.479 745.438Z" fill="#383669"/>
<path d="M247.857 51.874H17.4883V465.056H247.857V51.874Z" fill="#504E83"/>
<path d="M236.267 63.8525H26.6827V452.734H236.267V63.8525Z" fill="#383669"/>
<path d="M257.6 468.763L247.858 465.042V44.8701H257.6V468.763Z" fill="#36346B"/>
<path d="M78.0729 315.049L132.579 264.541C139.471 258.145 148.493 251.249 157.358 254.392C161.634 255.956 164.845 259.552 169.027 261.288C177.375 264.76 186.93 259.724 193.351 253.376C199.773 247.027 204.848 239.052 212.632 234.439C220.417 229.826 232.508 230.405 236.361 238.583V293.563L157.17 327.371L78.0729 315.049Z" fill="#423F76"/>
<path d="M26.6827 283.445C46.7468 275.298 66.7639 282.226 81.1111 298.41C84.134 301.819 86.8906 305.759 91.0413 307.636C96.6642 310.185 103.164 308.277 109.288 307.636C117.716 306.806 126.209 308.319 133.829 312.005C141.449 315.692 147.901 321.41 152.471 328.527L85.4967 361.365L26.6827 360.943V283.445Z" fill="#8689AA"/>
<path d="M236.283 283.696C223.063 277.332 211.441 285.026 199.256 293.188C187.07 301.351 175.762 311.796 161.446 315.08C151.891 317.269 141.648 316.05 132.422 319.334C113.627 326.026 102.663 349.873 82.787 351.014C71.964 351.64 62.253 345.088 52.589 340.162C42.9251 335.237 35.3599 330.577 26.6827 337.16V452.734H236.283V283.696Z" fill="#6E7191"/>
<path d="M210.422 183.606C214.77 165.038 203.218 146.466 184.62 142.125C166.022 137.783 147.42 149.316 143.071 167.884C138.723 186.452 150.274 205.024 168.873 209.365C187.471 213.707 206.073 202.174 210.422 183.606Z" fill="#747799"/>
<path d="M240.825 175.722H26.6827V179.866H240.825V175.722Z" fill="#504E83"/>
<path d="M240.825 268.323H26.6827V272.467H240.825V268.323Z" fill="#504E83"/>
<path d="M240.825 360.943H26.6827V365.087H240.825V360.943Z" fill="#6E7191"/>
<path d="M126.188 177.786V463.759H136.776V177.786H126.188Z" fill="#504E83"/>
<path d="M71.8388 63.8525H67.046V177.801H71.8388V63.8525Z" fill="#504E83"/>
<path d="M113.22 63.8525H108.427V177.801H113.22V63.8525Z" fill="#504E83"/>
<path d="M154.585 63.8525H149.793V177.801H154.585V63.8525Z" fill="#504E83"/>
<path d="M195.966 63.8525H191.173V177.801H195.966V63.8525Z" fill="#504E83"/>
<path d="M257.6 40.6001H7.7312V51.8745H257.6V40.6001Z" fill="#36346B"/>
<path d="M264.194 470.153H0.823395V480.661H264.194V470.153Z" fill="#6E7191"/>
<path d="M247.858 465.039L264.194 470.152H0.823395L17.4729 465.039H247.858Z" fill="#504E83"/>
<path d="M184.176 273.992C175.922 275.305 172.225 285.454 172.946 293.789C173.666 302.123 177.096 310.255 176.172 318.574C175.013 329.129 167.025 338.042 166.086 348.628C164.989 361.138 173.823 372.162 176.47 384.406C177.754 390.364 177.566 396.65 179.79 402.326C181.678 407.162 185.187 411.194 189.721 413.734C194.254 416.273 199.53 417.163 204.647 416.251C209.765 415.339 214.407 412.683 217.78 408.734C221.154 404.786 223.05 399.791 223.145 394.602C223.333 385.016 217.413 375.993 218.133 366.455C218.666 359.387 222.832 352.694 221.923 345.673C220.874 337.307 213.105 331.38 210.364 323.405C207.623 315.431 210.27 306.658 209.315 298.276C207.623 283.249 199.275 272.772 184.176 273.992Z" fill="#05C168"/>
<path d="M141.964 346.659C140.554 360.591 146.663 376.964 153.883 388.989C161.151 401.08 172.084 410.548 185.099 416.025C186.556 416.635 188.373 417.151 189.61 416.166C190.046 415.686 190.372 415.117 190.567 414.499C190.762 413.881 190.82 413.228 190.738 412.585C190.835 397.81 186.136 383.401 177.343 371.516C168.55 359.631 156.138 350.91 141.964 346.659Z" fill="#05C168"/>
<g opacity="0.1">
<path opacity="0.1" d="M141.964 346.658C140.554 360.591 146.663 376.963 153.883 388.988C161.151 401.079 172.084 410.548 185.099 416.025C186.556 416.635 188.373 417.151 189.61 416.166C190.046 415.685 190.372 415.117 190.567 414.498C190.762 413.88 190.82 413.227 190.738 412.585C190.835 397.81 186.136 383.4 177.343 371.515C168.55 359.631 156.138 350.909 141.964 346.658Z" fill="black"/>
</g>
<path d="M202.704 445.141C202.536 444.899 202.399 444.636 202.297 444.359L201.31 442.076C200.464 440.09 199.211 437.229 197.629 433.726C189.327 415.402 179.132 397.992 167.212 381.779C164.941 378.652 163.062 376.181 161.73 374.477L160.164 372.491C159.98 372.267 159.818 372.026 159.678 371.771C159.678 371.771 159.913 371.959 160.289 372.397L161.856 374.289C163.265 375.931 165.207 378.37 167.557 381.451C179.79 397.519 190.054 414.99 198.131 433.491C199.697 437.041 200.84 439.934 201.592 441.967L202.454 444.312C202.565 444.579 202.649 444.857 202.704 445.141Z" fill="#EFF0F7"/>
<path d="M193.745 312.428C193.821 312.873 193.868 313.322 193.886 313.773C193.964 314.711 194.058 315.993 194.168 317.604C194.387 321.013 194.7 325.813 195.076 331.677C195.828 343.593 196.893 360.043 198.209 378.198C199.524 396.353 200.762 412.819 201.686 424.718C202.14 430.614 202.5 435.399 202.767 438.792C202.876 440.356 202.955 441.685 203.017 442.623C203.059 443.07 203.059 443.521 203.017 443.968C202.914 443.531 202.845 443.086 202.814 442.639C202.72 441.7 202.579 440.418 202.406 438.823C202.093 435.414 201.639 430.629 201.075 424.75C200.01 412.85 198.663 396.415 197.379 378.245C196.094 360.074 195.123 343.608 194.512 331.693C194.246 325.782 194.027 320.981 193.854 317.619C193.854 316.056 193.76 314.726 193.729 313.773C193.697 313.325 193.703 312.875 193.745 312.428Z" fill="#EFF0F7"/>
<path d="M181.238 431.6C181.055 428.166 183.79 425.281 187.229 425.281H209.814C213.128 425.281 215.814 427.968 215.814 431.281V450.879C215.814 455.317 214.048 459.573 210.905 462.71C207.762 465.848 203.5 467.611 199.055 467.611C194.764 467.609 190.637 465.966 187.523 463.02C184.409 460.074 182.544 456.048 182.311 451.771L181.238 431.6Z" fill="#312E72"/>
<path d="M215.97 437.48C215.97 437.48 215.532 437.23 214.686 436.948C213.496 436.593 212.235 436.544 211.021 436.808C209.207 437.254 207.439 437.872 205.743 438.653C204.676 439.087 203.561 439.392 202.422 439.56C201.188 439.707 199.938 439.643 198.726 439.372C196.467 438.786 194.245 438.071 192.069 437.23C190.321 436.616 188.469 436.351 186.618 436.448C185.383 436.513 184.185 436.896 183.141 437.558C182.405 438.059 182.092 438.45 182.029 438.403C182.232 437.966 182.545 437.589 182.938 437.308C183.992 436.502 185.25 436.004 186.571 435.869C188.506 435.686 190.458 435.905 192.304 436.511C194.371 437.136 196.533 438.074 198.882 438.575C200.012 438.827 201.176 438.896 202.328 438.778C203.399 438.615 204.449 438.337 205.461 437.949C207.207 437.178 209.036 436.606 210.911 436.245C212.219 436.02 213.563 436.161 214.796 436.651C215.673 437.042 216.002 437.449 215.97 437.48Z" fill="#DCDDEB"/>
<path d="M215.971 440.467C215.971 440.467 215.533 440.217 214.687 439.935C213.486 439.557 212.208 439.493 210.975 439.747C209.159 440.186 207.39 440.804 205.697 441.593C204.628 442.02 203.514 442.324 202.376 442.5C201.142 442.64 199.893 442.576 198.68 442.312C196.423 441.714 194.201 440.994 192.023 440.154C190.275 439.541 188.423 439.275 186.572 439.372C185.335 439.441 184.137 439.829 183.095 440.498C182.359 440.983 182.046 441.374 181.983 441.327C182.186 440.89 182.499 440.513 182.892 440.232C183.944 439.425 185.204 438.932 186.525 438.809C188.46 438.61 190.415 438.829 192.258 439.45C194.325 440.06 196.487 441.014 198.836 441.514C199.967 441.762 201.131 441.825 202.282 441.702C203.355 441.556 204.406 441.283 205.415 440.889C207.164 440.12 208.991 439.543 210.865 439.169C212.173 438.944 213.517 439.085 214.75 439.575C215.237 439.743 215.663 440.054 215.971 440.467Z" fill="#DCDDEB"/>
<path d="M187.136 442.171C187.136 442.28 186.87 442.421 186.776 442.827C186.682 443.234 186.854 443.719 187.434 443.625C188.013 443.531 188.045 443.031 187.81 442.655C187.575 442.28 187.262 442.264 187.246 442.155C187.23 442.046 187.685 441.811 188.233 442.264C188.388 442.405 188.507 442.58 188.581 442.776C188.654 442.972 188.68 443.183 188.656 443.39C188.608 443.659 188.476 443.905 188.279 444.093C188.082 444.281 187.83 444.402 187.559 444.438C187.289 444.488 187.011 444.451 186.763 444.333C186.516 444.215 186.312 444.022 186.181 443.781C186.093 443.59 186.054 443.38 186.067 443.169C186.081 442.959 186.147 442.756 186.259 442.577C186.635 441.983 187.168 442.061 187.136 442.171Z" fill="#DCDDEB"/>
<path d="M199.775 435.524C199.665 435.524 199.932 434.993 200.637 435.102C200.849 435.147 201.042 435.257 201.188 435.417C201.334 435.577 201.426 435.778 201.451 435.994C201.484 436.26 201.426 436.53 201.286 436.759C201.146 436.988 200.932 437.163 200.68 437.256C200.427 437.348 200.151 437.353 199.896 437.268C199.64 437.184 199.421 437.016 199.274 436.791C199.159 436.614 199.098 436.408 199.098 436.197C199.098 435.986 199.159 435.78 199.274 435.603C199.65 435.024 200.135 435.102 200.135 435.212C200.135 435.321 199.885 435.478 199.791 435.837C199.77 435.925 199.771 436.016 199.793 436.103C199.814 436.19 199.857 436.27 199.916 436.338C199.983 436.409 200.067 436.461 200.161 436.488C200.255 436.516 200.354 436.518 200.449 436.494C200.535 436.458 200.61 436.397 200.662 436.319C200.715 436.241 200.744 436.15 200.746 436.056C200.752 435.973 200.732 435.89 200.691 435.817C200.649 435.745 200.586 435.687 200.511 435.65C200.135 435.478 199.853 435.603 199.775 435.524Z" fill="#DCDDEB"/>
<path d="M212.007 441.968C212.007 441.874 212.477 441.671 213.025 442.187C213.188 442.346 213.303 442.548 213.355 442.769C213.408 442.991 213.397 443.222 213.323 443.438C213.247 443.724 213.076 443.975 212.837 444.151C212.598 444.326 212.306 444.415 212.01 444.402C211.714 444.389 211.431 444.276 211.208 444.081C210.986 443.885 210.837 443.62 210.786 443.328C210.735 443.099 210.758 442.859 210.851 442.644C210.943 442.428 211.101 442.246 211.302 442.124C211.976 441.733 212.43 442.124 212.336 442.202C212.242 442.281 211.945 442.202 211.647 442.578C211.574 442.65 211.524 442.741 211.501 442.841C211.479 442.941 211.486 443.045 211.522 443.141C211.561 443.252 211.63 443.35 211.721 443.424C211.812 443.499 211.922 443.547 212.039 443.563C212.162 443.559 212.282 443.52 212.385 443.451C212.487 443.382 212.568 443.285 212.618 443.172C212.668 443.075 212.693 442.968 212.693 442.859C212.693 442.75 212.668 442.643 212.618 442.546C212.352 442.171 211.992 442.093 212.007 441.968Z" fill="#DCDDEB"/>
<path d="M426.192 138.563L392.927 138.87L393.234 172.081L426.5 171.774L426.192 138.563Z" fill="#4E4B88"/>
<path d="M426.132 147.025C420.682 147.535 415.207 147.738 409.734 147.634C404.261 147.833 398.781 147.735 393.318 147.338C398.769 146.839 404.243 146.635 409.717 146.73C415.19 146.531 420.67 146.629 426.132 147.025Z" fill="#7976AB"/>
<path d="M416.042 157.326C415.886 156.853 415.758 156.371 415.659 155.882C415.263 154.607 414.462 153.496 413.376 152.716C412.585 152.16 411.669 151.806 410.709 151.684C409.749 151.563 408.774 151.678 407.869 152.02C406.756 152.434 405.798 153.183 405.128 154.163C404.458 155.143 404.108 156.306 404.127 157.492C404.147 158.678 404.533 159.83 405.235 160.788C405.936 161.746 406.917 162.463 408.044 162.841C408.955 163.165 409.931 163.262 410.888 163.122C411.845 162.983 412.753 162.612 413.533 162.041C414.606 161.245 415.389 160.121 415.763 158.84C415.855 158.347 415.971 157.859 416.112 157.378C416.24 157.887 416.24 158.419 416.112 158.927C415.847 160.356 415.074 161.641 413.934 162.546C413.084 163.231 412.073 163.689 410.997 163.878C409.921 164.067 408.815 163.979 407.782 163.624C406.501 163.184 405.387 162.358 404.596 161.26C403.804 160.163 403.373 158.847 403.361 157.494C403.35 156.141 403.759 154.818 404.532 153.706C405.305 152.595 406.404 151.751 407.678 151.289C408.705 150.92 409.809 150.815 410.887 150.986C411.966 151.156 412.984 151.596 413.847 152.263C414.998 153.154 415.795 154.424 416.095 155.847C416.201 156.337 416.183 156.845 416.042 157.326Z" fill="#7976AB"/>
<path d="M555.122 171.87H346.163V182.518H555.122V171.87Z" fill="#36346B"/>
<path d="M519.851 179.981H513.943V214.933H519.851V179.981Z" fill="#36346B"/>
<path d="M388.055 179.455H381.973V215.468H388.055V179.455Z" fill="#36346B"/>
<path d="M444.134 0.694336C447.684 0.976536 451.141 1.97104 454.297 3.61814C457.453 5.26534 460.243 7.53134 462.501 10.2805C466.985 15.822 470.139 22.315 471.72 29.2616C475.205 42.5535 472.853 58.1767 468.949 71.3295C454.607 66.1101 445.877 50.6957 441.938 42.6231C435.717 29.8531 432.232 2.99084 444.134 0.694336Z" fill="#05C168"/>
<path d="M489.493 87.58C487.371 84.219 486.173 80.3587 486.02 76.3882C485.867 72.4178 486.765 68.4771 488.622 64.963C490.55 61.488 493.152 58.4308 496.276 55.9696C499.399 53.5084 502.982 51.6923 506.815 50.6272C510.301 49.5833 514.413 49.1658 517.445 51.2187C518.802 52.2763 519.854 53.6739 520.493 55.2691C521.133 56.8644 521.338 58.6003 521.087 60.3004C520.513 63.6944 519.059 66.8792 516.87 69.5386C509.795 78.9161 501.187 86.71 489.493 87.58Z" fill="#05C168"/>
<path d="M474.265 101.654C469.794 94.548 463.689 88.611 456.458 84.335C449.226 80.0594 441.076 77.569 432.686 77.071C428.416 76.8622 423.328 77.68 421.516 81.5249C419.703 85.37 422.335 89.841 425.28 92.92C431.574 99.223 439.597 103.523 448.337 105.278C457.076 107.034 466.141 106.166 474.387 102.785" fill="#05C168"/>
<path d="M489.615 133.163C489.331 132.244 489.133 131.3 489.023 130.345C488.709 128.605 488.291 125.891 487.838 122.603C486.521 114.041 486.328 105.344 487.263 96.732C488.293 88.07 491.626 79.84 496.917 72.8972C498.537 70.8232 500.403 68.9536 502.476 67.3299C503.19 66.7384 503.835 66.373 504.218 66.0947C504.42 65.9364 504.643 65.8075 504.881 65.7119C502.129 67.9536 499.633 70.4917 497.44 73.28C492.399 80.2368 489.22 88.363 488.204 96.889C487.306 105.42 487.417 114.028 488.535 122.533C488.901 125.7 489.197 128.309 489.423 130.293C489.556 131.244 489.62 132.203 489.615 133.163Z" fill="#DCDDEB"/>
<path d="M448.593 20.9116C448.809 21.2611 448.995 21.6277 449.151 22.0077L450.597 25.2263C451.835 28.0099 453.595 32.081 455.703 37.1264C459.938 47.1997 465.601 61.205 471.509 76.8108C477.416 92.417 482.453 106.665 485.955 117.035C487.698 122.254 489.092 126.412 490.016 129.335C490.434 130.727 490.782 131.84 491.061 132.693C491.203 133.075 491.302 133.472 491.358 133.876C491.155 133.519 490.997 133.14 490.887 132.745C490.573 131.91 490.173 130.814 489.685 129.439L485.345 117.261C481.703 106.961 476.632 92.747 470.672 77.1588C464.713 61.5703 459.189 47.5825 455.111 37.3874L450.266 25.4003C449.743 24.0432 449.308 22.9472 448.977 22.1121C448.804 21.7278 448.675 21.325 448.593 20.9116Z" fill="#DCDDEB"/>
<path d="M439.41 88.032C440.331 88.016 441.251 88.074 442.163 88.206C443.236 88.27 444.302 88.415 445.352 88.641C446.767 88.877 448.168 89.185 449.552 89.563L451.957 90.224C452.793 90.468 453.699 90.816 454.518 91.129C456.394 91.802 458.232 92.574 460.025 93.443C464.108 95.487 467.968 97.9471 471.544 100.785C475.118 103.717 478.366 107.024 481.233 110.649C482.453 112.223 483.587 113.86 484.631 115.555C485.119 116.356 485.624 117.104 486.025 117.869L487.175 120.079C487.822 121.353 488.404 122.66 488.918 123.993C489.347 124.976 489.708 125.988 489.998 127.02C490.309 127.888 490.554 128.778 490.73 129.682C490.521 129.682 489.51 125.942 486.583 120.375L485.398 118.217C484.997 117.469 484.474 116.738 483.986 115.955C483.028 114.372 481.791 112.824 480.501 111.154C474.877 104.085 467.776 98.326 459.694 94.278C457.812 93.408 456.052 92.538 454.292 91.912C453.438 91.599 452.549 91.233 451.8 90.972L449.43 90.259C443.4 88.502 439.41 88.293 439.41 88.032Z" fill="#DCDDEB"/>
<path d="M462.326 120.322H513.96V150.49C513.96 153.298 513.406 156.078 512.33 158.673C511.254 161.267 509.676 163.624 507.688 165.609C505.699 167.595 503.338 169.17 500.739 170.244C498.141 171.319 495.356 171.872 492.543 171.872H483.743C478.063 171.872 472.616 169.619 468.599 165.609C464.583 161.6 462.326 156.161 462.326 150.49V120.322Z" fill="#615F91"/>
<path d="M544.278 240.117C543.787 240.691 543.091 241.049 542.339 241.117C541.587 241.184 540.838 240.955 540.253 240.478L452.805 168.02L456.469 163.641L543.87 236.117C544.451 236.596 544.819 237.285 544.896 238.034C544.972 238.782 544.75 239.531 544.278 240.117Z" fill="#7876B4"/>
<path d="M479.78 186.62C479.78 186.62 474.449 200.162 468.988 199.602C463.527 199.042 462.043 190.321 462.043 190.321C462.043 190.321 457.545 198.075 452.897 194.334C448.248 190.593 449.477 181.373 449.477 181.373C449.477 181.373 441.806 186.16 439.151 182.039C435.51 176.362 446.483 166.749 446.483 166.749C446.483 166.749 454.415 145.522 460.308 146.043C465.165 146.458 464.099 154.511 464.099 154.511C464.099 154.511 468.068 148.909 472.882 148.828C477.696 148.747 475.871 160.67 475.871 160.67C475.871 160.67 484.371 155.404 487.307 159.961C490.243 164.517 481.662 171.573 481.662 171.573C481.662 171.573 492.987 168.81 491.869 175.29C490.751 181.769 479.78 186.62 479.78 186.62Z" fill="#4B3CFB"/>
<path d="M450.851 131.09C446.263 127.281 440.086 132.278 440.086 132.278C440.086 132.278 441.431 126.43 438.497 124.898C432.526 121.743 425.848 135.116 425.848 135.116C425.848 135.116 407.447 142.344 407.25 148.275C407.053 154.206 414.913 153.527 414.913 153.527C413.896 154.51 413.13 155.723 412.68 157.063C412.231 158.403 412.11 159.831 412.329 161.227C413.131 165.946 424.566 161.939 424.566 161.939C424.566 161.939 420.958 171.254 425.967 173.303C429.542 174.768 433.281 170.273 435.149 167.55C433.787 170.085 432.186 174.482 435.666 177.175C437.349 178.501 439.947 176.463 442.523 173.429C442.765 174.157 443.211 174.799 443.808 175.281C444.406 175.762 445.129 176.062 445.892 176.145C449.969 176.747 452.839 169.579 452.687 164.953C456.906 164.003 461.005 162.304 459.938 159.24C459.51 158.18 458.846 157.233 457.995 156.469C457.144 155.706 456.129 155.148 455.028 154.837C457.688 150.657 460.436 145.426 459.585 142.495C458.059 137.187 451.115 142.9 451.115 142.9C451.115 142.9 455.439 134.898 450.851 131.09Z" fill="white"/>
<path d="M413.076 108.854C413.076 108.854 413.185 101.287 408.105 99.1141C403.025 96.9401 397.963 108.891 397.963 108.891C397.963 108.891 385.932 106.318 382.828 112.115C379.723 117.913 387.246 123.864 387.246 123.864C387.246 123.864 381.192 126.65 382.586 131.901C383.98 137.151 393.697 134.748 393.697 134.748C393.697 134.748 388.219 145.563 392.791 146.976C397.363 148.388 403.16 142.929 403.16 142.929C403.16 142.929 400.164 151.938 406.061 152.523C408.67 152.785 411.53 149.334 413.929 145.409C414.52 146.407 415.448 147.161 416.547 147.536C417.645 147.91 418.842 147.881 419.921 147.453C426.566 144.861 422.854 137.868 422.854 137.868C422.854 137.868 437.053 135.515 436.329 130.437C436.036 128.281 433.617 127.639 430.939 127.589C433.9 125.114 435.945 122.398 434.72 119.986C432.177 114.652 422.772 118.647 422.772 118.647C422.772 118.647 427.592 113.289 424.422 108.278C421.252 103.268 413.076 108.854 413.076 108.854Z" fill="#4B3CFB"/>
<path d="M540.189 232.822C540.189 232.822 542.544 232.347 543.496 233.321C545.566 235.458 542.14 238.332 542.14 238.332C538.793 241.558 535.274 244.603 531.601 247.453C531.601 247.453 475.24 318.519 464.344 323.269C455.684 327.188 403.701 326.428 383.455 325.977L364.732 387.732L380.148 446.969L276.849 448.322L301.068 388.634L297.119 374.81L288.03 356.142C265.881 405.522 250.536 482.834 245.207 509.175L245.588 511.55C245.736 515.602 246.294 519.628 247.253 523.568C247.717 525.545 248.522 527.425 249.632 529.126C250.877 531.31 252.423 533.309 254.224 535.064C254.602 535.351 254.886 535.744 255.038 536.193C255.191 536.642 255.206 537.126 255.08 537.583C254.955 538.041 254.695 538.45 254.335 538.759C253.974 539.068 253.53 539.262 253.058 539.316C250.964 539.221 245.873 535.373 242.519 528.746C239.164 522.12 236.666 533.568 235.667 537.701C234.668 541.834 231.028 554.541 229.505 555.253C227.269 556.275 225.746 554.161 226.841 549.98C227.935 545.8 230.243 533.283 228.078 532.855C225.913 532.428 221.155 553.638 221.155 553.638C221.155 553.638 220.869 558.317 218.3 557.937C213.637 557.225 220.322 535.064 221.012 532.974C221.44 531.501 219.085 531.003 218.633 532.57C218.181 534.138 214.398 553.804 209.64 553.139C206 552.617 214.969 534.874 213.494 530.361C212.019 525.849 208.07 544.517 204.596 543.876C203.311 543.639 202.384 543.282 206.214 532.879C209.515 525.031 213.231 517.364 217.348 509.911C222.796 453.382 253.677 352.745 267.309 310.229C269.353 303.862 273.111 298.178 278.17 293.796C283.23 289.415 289.398 286.506 296 285.385C310.582 282.971 325.328 281.677 340.109 281.513C345.961 281.442 347.008 280.611 352.884 280.349C357.533 280.31 362.178 280.627 366.778 281.299C380.315 282.725 447.786 289.684 451.14 286.501C454.899 282.962 506.811 233.249 506.811 233.249H507.001C508.35 229.76 509.424 226.17 510.213 222.514C510.644 220.548 510.733 218.523 510.474 216.528C510.268 214.023 509.708 211.56 508.809 209.213C507.786 207.146 509.784 204.914 511.664 205.864C513.543 206.814 516.541 212.419 516.779 219.853C517.017 227.288 526.747 214.628 526.747 214.628C528.981 213.464 533.08 213.355 531.601 222.229C533.132 222.184 534.655 222.459 536.073 223.036C536.299 223.143 536.487 223.316 536.61 223.533C536.734 223.75 536.787 223.999 536.763 224.247C536.625 225.368 536.625 226.5 536.763 227.62C536.763 227.62 539.761 227.359 540.189 228.689C540.425 230.057 540.425 231.454 540.189 232.822Z" fill="#FFBE9D"/>
<path d="M272.304 404.216C275.302 394.003 290.695 343.507 290.695 343.507C290.695 343.507 298.26 384.669 296.262 389.633C294.423 393.882 292.252 397.98 289.767 401.889C272.304 428.419 274.588 441.697 274.588 441.697L380.1 438.49C380.338 423.764 371.607 389.514 369.799 384.051C367.991 378.588 374.01 360.703 374.01 360.703C374.01 360.703 385.905 348.613 385.477 342.39C385.251 336.8 384.559 331.239 383.407 325.764L447.642 328.139L445.62 284.673L353.36 275.458C350.148 284.507 321.099 280.065 321.099 280.065C289.743 281.11 287.792 286.858 274.755 296.977C261.717 307.095 240.139 393.932 240.139 393.932L272.304 404.216Z" fill="#0075FF"/>
<path d="M334.684 393.932C332.856 394.258 330.993 394.354 329.141 394.217C325.691 394.217 320.957 393.979 315.747 393.457C310.536 392.934 305.826 392.198 302.471 391.533C300.622 391.295 298.808 390.832 297.071 390.155C298.931 390.156 300.787 390.331 302.614 390.678C305.992 391.105 310.679 391.699 315.866 392.222C321.052 392.744 325.762 393.1 329.165 393.338C331.019 393.361 332.867 393.56 334.684 393.932Z" fill="white"/>
<path d="M341.916 384.977C340.087 385.871 338.153 386.533 336.159 386.948C326.667 389.438 316.874 390.597 307.062 390.392C305.032 390.458 303.002 390.266 301.02 389.822C303.023 389.569 305.043 389.466 307.062 389.513C310.798 389.394 315.936 389.133 321.599 388.468C327.261 387.803 332.304 386.853 335.873 386.093C337.855 385.564 339.876 385.191 341.916 384.977Z" fill="white"/>
<path d="M377.413 345.024C377.365 346.835 377.117 348.635 376.675 350.392C376.057 353.693 375.105 358.206 373.892 363.147C372.679 368.087 371.513 372.647 370.466 375.735C370.045 377.503 369.422 379.216 368.61 380.842C368.743 379.036 369.078 377.252 369.61 375.521C370.514 371.816 371.537 367.541 372.679 362.862C373.821 358.182 374.915 353.907 375.819 350.202C376.141 348.418 376.676 346.68 377.413 345.024Z" fill="white"/>
<path d="M273.423 398.158C267.919 397.309 262.488 396.047 257.174 394.381C251.745 393.114 246.417 391.446 241.234 389.393C246.736 390.255 252.166 391.518 257.483 393.17C262.914 394.433 268.242 396.1 273.423 398.158Z" fill="white"/>
<path d="M384.55 325.241C383.652 325.395 382.735 325.395 381.838 325.241C379.353 324.987 376.913 324.404 374.581 323.507C370.69 322.047 367.147 319.79 364.18 316.882C361.214 313.974 358.89 310.478 357.357 306.62C355.663 302.375 354.939 297.807 355.24 293.247C355.346 289.487 356.472 285.826 358.499 282.654C359.924 280.518 362.054 278.946 364.518 278.212C365.176 278.031 365.857 277.943 366.54 277.951C367.016 277.951 367.254 277.951 367.254 277.951C367.254 277.951 366.255 277.951 364.661 278.593C362.4 279.426 360.483 280.989 359.213 283.034C355.977 288.117 355.073 297.404 358.523 306.073C360.128 310.161 362.642 313.832 365.874 316.809C368.522 319.246 371.573 321.206 374.891 322.605C378.004 323.833 381.243 324.717 384.55 325.241Z" fill="white"/>
<path d="M440.007 327.284C439.412 320.001 439.221 312.69 439.436 305.385C439.25 298.087 439.472 290.783 440.102 283.51C440.698 290.785 440.888 298.088 440.673 305.385C440.873 312.692 440.651 320.004 440.007 327.284Z" fill="white"/>
<path d="M352.741 278.118C353.002 272.822 353.55 266.836 353.55 266.836C353.55 266.836 366.682 265.387 367.467 251.849C368.252 238.31 367.467 207.076 367.467 207.076L343.676 194.916L317.269 215.651L321.337 283.344L345.556 284.888C347.407 284.939 349.203 284.255 350.55 282.986C351.897 281.717 352.685 279.966 352.741 278.118Z" fill="#FFBE9D"/>
<path d="M355.097 241.136C355.097 241.136 355.097 241.398 354.883 241.706C354.706 241.93 354.477 242.108 354.216 242.224C353.955 242.34 353.669 242.39 353.384 242.371C351.862 242.371 350.387 240.614 349.863 238.571C349.615 237.581 349.615 236.545 349.863 235.555C349.912 235.123 350.068 234.709 350.318 234.353C350.567 233.996 350.901 233.707 351.291 233.512C351.611 233.38 351.97 233.38 352.29 233.512C352.527 233.63 352.719 233.821 352.837 234.058C353.004 234.462 352.837 234.723 352.837 234.7C352.837 234.676 352.837 234.462 352.599 234.225C352.475 234.054 352.292 233.936 352.086 233.892C351.879 233.849 351.664 233.882 351.481 233.987C351.189 234.163 350.947 234.41 350.776 234.705C350.606 235 350.513 235.333 350.506 235.673C350.305 236.557 350.305 237.474 350.506 238.357C350.981 240.21 352.266 241.706 353.408 241.849C353.632 241.879 353.859 241.863 354.076 241.802C354.293 241.741 354.495 241.635 354.669 241.493C354.955 241.303 355.05 241.113 355.097 241.136Z" fill="#EB996E"/>
<path d="M375.628 199.759C373.796 193.536 367.158 190.449 361.115 188.739C351.908 186.126 341.964 184.986 332.971 188.287C323.978 191.589 313.177 197.384 313.177 207.289C307.872 206.861 304.826 211.493 302.733 217.241C301.394 220.743 300.592 224.426 300.354 228.167C299.688 241.135 296.048 259.044 287.626 268.545C282.868 273.842 276.277 277.499 273.565 284.102C271.186 289.827 272.423 296.62 270.211 302.415C268.236 307.522 263.882 311.156 260.695 315.597C257.447 320.636 255.535 326.416 255.14 332.395C254.745 338.374 255.878 344.355 258.434 349.776C261.009 355.058 264.634 359.762 269.088 363.6C273.542 367.439 278.732 370.332 284.343 372.103C295.455 375.478 307.306 375.594 318.482 372.435C326.87 370.433 334.695 366.56 341.369 361.106C348.198 355.538 352.888 347.785 354.644 339.159C356.333 329.468 353.621 319.611 351.599 309.968C345.271 279.494 347.079 277.903 355.073 249.615C355.263 249.116 355.358 248.593 355.501 248.095C355.644 247.596 355.715 247.358 355.81 246.978C356.037 245.86 356.157 244.723 356.167 243.582C354.999 244.015 353.732 244.107 352.514 243.846C351.296 243.585 350.178 242.983 349.291 242.109C348.403 241.178 347.783 240.024 347.498 238.769C347.213 237.515 347.274 236.206 347.674 234.983C348.235 233.646 349.071 232.441 350.129 231.447C351.186 230.453 352.441 229.691 353.812 229.212C356.452 228.119 359.284 227.549 361.877 226.338C367.372 223.725 371.179 218.31 373.772 212.633C375.904 208.699 376.562 204.134 375.628 199.759Z" fill="#6E7191"/>
<path d="M274.589 441.695L380.101 438.489L426.017 617.435L417.572 822.699H361.782L368.61 621.806L327.809 497.227L334.09 830.656L277.706 831.487L271.782 518.081C271.52 509.364 268.665 489.721 269.736 481.076L274.589 441.695Z" fill="#6E7191"/>
<path d="M341.845 499.768C340.118 499.876 338.384 499.773 336.682 499.459C333.494 499.079 329.141 498.414 324.359 497.464C319.577 496.514 315.294 495.421 312.202 494.543C310.548 494.18 308.949 493.605 307.443 492.832C307.443 492.476 315.199 494.329 324.715 496.253C334.232 498.177 341.892 499.412 341.845 499.768Z" fill="#A0A3BD"/>
<path d="M326.31 821.133C325.977 821.133 324.502 748.287 323.003 658.433C321.505 568.58 320.624 495.686 320.934 495.686C321.243 495.686 322.766 568.509 324.241 658.41C325.716 748.31 326.667 821.133 326.31 821.133Z" fill="#A0A3BD"/>
<path d="M409.507 811.441C409.481 811.117 409.481 810.792 409.507 810.468V807.617C409.507 805.052 409.697 801.371 409.84 796.691C410.173 787.191 410.649 773.391 411.244 756.48C412.528 722.467 414.336 675.581 416.311 623.825C416.311 623.327 416.311 622.852 416.311 622.424V622.59C403.821 572.711 392.52 527.44 384.312 494.687L374.796 455.947C373.702 451.411 372.869 447.872 372.274 445.402C371.989 444.238 371.798 443.335 371.632 442.646C371.539 442.337 371.483 442.018 371.465 441.696C371.589 441.996 371.685 442.306 371.751 442.623C371.941 443.288 372.179 444.19 372.512 445.33C373.155 447.706 374.082 451.316 375.272 455.829C377.651 464.997 381.005 478.203 385.193 494.473C393.472 527.203 404.891 572.355 417.548 622.305V622.472C417.548 622.899 417.548 623.398 417.548 623.873C415.431 675.628 413.504 722.491 412.1 756.503C411.363 773.438 410.744 787.143 410.316 796.691C410.078 801.442 409.887 805.052 409.769 807.617C409.769 808.829 409.626 809.779 409.602 810.468C409.606 810.795 409.574 811.121 409.507 811.441Z" fill="#A0A3BD"/>
<path d="M391.306 618.245C387.299 619.56 383.171 620.475 378.982 620.976C373.843 621.855 372.317 621.821 370.342 621.916V621.441C370.985 621.631 371.318 621.75 371.318 621.845C371.318 621.94 370.913 621.845 370.247 621.845H368.82L370.247 621.417C372.103 620.871 373.629 620.62 378.768 619.693C382.89 618.801 387.089 618.316 391.306 618.245Z" fill="#A0A3BD"/>
<path d="M390.331 625.061C386.62 625.23 382.902 625.064 379.221 624.562C375.505 624.486 372.263 624.038 368.618 623.308C376.053 622.703 383.078 623.322 390.331 625.061Z" fill="#A0A3BD"/>
<path opacity="0.2" d="M274.136 445.472C275.386 447.074 276.96 448.395 278.755 449.348C280.551 450.302 282.528 450.867 284.557 451.006C288.806 451.509 293.104 451.429 297.332 450.768C324.573 447.752 353.431 444.973 380.1 438.489C345.58 440.413 309.109 439.771 274.588 441.695L274.231 444.64" fill="#A0A3BD"/>
<g opacity="0.2">
<path opacity="0.2" d="M309.704 494.046L329.164 569.434L327.808 497.229L309.704 494.046Z" fill="black"/>
</g>
<path d="M512.005 91.0791C518.201 93.4341 515.732 100.89 515.732 100.89C515.732 100.89 520.779 99.3211 523.185 102.9C525.591 106.479 517.147 107.719 518.468 108.975C519.789 110.231 525.434 112.994 521.393 116.165C517.351 119.336 511.958 114.454 511.958 114.454C511.958 114.454 510.763 117.389 506.109 118.08C501.454 118.771 503.341 111 503.341 111C503.341 111 500.338 115.034 498.263 108.692C497.934 107.93 497.784 107.102 497.824 106.272C497.863 105.443 498.092 104.634 498.492 103.906C498.893 103.178 499.454 102.55 500.133 102.071C500.813 101.592 501.593 101.274 502.414 101.142C502.414 101.142 499.505 95.5841 502.005 94.2031C504.505 92.8211 509.175 97.3431 509.175 97.3431C509.175 97.3431 508.908 89.9021 512.005 91.0791Z" fill="#407BFF"/>
<path d="M512.005 91.0791C518.201 93.4341 515.732 100.89 515.732 100.89C515.732 100.89 520.779 99.3211 523.185 102.9C525.591 106.479 517.147 107.719 518.468 108.975C519.789 110.231 525.434 112.994 521.393 116.165C517.351 119.336 511.958 114.454 511.958 114.454C511.958 114.454 510.763 117.389 506.109 118.08C501.454 118.771 503.341 111 503.341 111C503.341 111 500.338 115.034 498.263 108.692C497.934 107.93 497.784 107.102 497.824 106.272C497.863 105.443 498.092 104.634 498.492 103.906C498.893 103.178 499.454 102.55 500.133 102.071C500.813 101.592 501.593 101.274 502.414 101.142C502.414 101.142 499.505 95.5841 502.005 94.2031C504.505 92.8211 509.175 97.3431 509.175 97.3431C509.175 97.3431 508.908 89.9021 512.005 91.0791Z" fill="#ACAAD1"/>
<path d="M555.027 122.867C556.19 125.693 552.92 127.231 552.92 127.231C552.92 127.231 555.043 128.408 554.602 130.371C554.162 132.333 551.064 129.884 551.08 130.732C551.096 131.579 551.945 134.358 549.602 133.997C547.259 133.636 547.165 130.308 547.165 130.308C546.627 130.439 546.066 130.434 545.53 130.295C544.995 130.155 544.503 129.884 544.099 129.507C542.385 128.173 545.592 126.368 545.592 126.368C545.592 126.368 543.297 126.65 544.759 123.934C544.912 123.583 545.143 123.272 545.434 123.023C545.725 122.774 546.07 122.594 546.441 122.497C546.812 122.4 547.2 122.389 547.576 122.464C547.952 122.539 548.306 122.698 548.611 122.93C548.611 122.93 549.555 120.183 550.813 120.591C552.071 120.999 552.024 123.997 552.024 123.997C552.024 123.997 554.429 121.454 555.027 122.867Z" fill="#407BFF"/>
<path d="M555.027 122.867C556.19 125.693 552.92 127.231 552.92 127.231C552.92 127.231 555.043 128.408 554.602 130.371C554.162 132.333 551.064 129.884 551.08 130.732C551.096 131.579 551.945 134.358 549.602 133.997C547.259 133.636 547.165 130.308 547.165 130.308C546.627 130.439 546.066 130.434 545.53 130.295C544.995 130.155 544.503 129.884 544.099 129.507C542.385 128.173 545.592 126.368 545.592 126.368C545.592 126.368 543.297 126.65 544.759 123.934C544.912 123.583 545.143 123.272 545.434 123.023C545.725 122.774 546.07 122.594 546.441 122.497C546.812 122.4 547.2 122.389 547.576 122.464C547.952 122.539 548.306 122.698 548.611 122.93C548.611 122.93 549.555 120.183 550.813 120.591C552.071 120.999 552.024 123.997 552.024 123.997C552.024 123.997 554.429 121.454 555.027 122.867Z" fill="#ACAAD1"/>
<path d="M521.031 149.632C517.76 152.631 514.034 148.91 514.034 148.91C514.034 148.91 513.468 152.411 510.59 152.772C507.713 153.133 509.505 147.701 508.342 148.157C507.178 148.612 503.829 151.108 503.153 147.733C502.477 144.358 507.005 142.599 507.005 142.599C506.547 141.936 506.268 141.165 506.194 140.363C506.119 139.56 506.253 138.752 506.581 138.016C507.556 135.033 511.675 138.487 511.675 138.487C511.675 138.487 510.103 135.488 514.584 136.147C515.134 136.186 515.668 136.347 516.147 136.619C516.626 136.891 517.037 137.267 517.351 137.719C517.665 138.171 517.873 138.688 517.96 139.231C518.048 139.774 518.011 140.33 517.855 140.857C517.855 140.857 522.069 140.857 522.147 142.694C522.226 144.53 518.075 146.022 518.075 146.022C518.075 146.022 522.666 148.141 521.031 149.632Z" fill="#407BFF"/>
<path d="M521.031 149.632C517.76 152.631 514.034 148.91 514.034 148.91C514.034 148.91 513.468 152.411 510.59 152.772C507.713 153.133 509.505 147.701 508.342 148.157C507.178 148.612 503.829 151.108 503.153 147.733C502.477 144.358 507.005 142.599 507.005 142.599C506.547 141.936 506.268 141.165 506.194 140.363C506.119 139.56 506.253 138.752 506.581 138.016C507.556 135.033 511.675 138.487 511.675 138.487C511.675 138.487 510.103 135.488 514.584 136.147C515.134 136.186 515.668 136.347 516.147 136.619C516.626 136.891 517.037 137.267 517.351 137.719C517.665 138.171 517.873 138.688 517.96 139.231C518.048 139.774 518.011 140.33 517.855 140.857C517.855 140.857 522.069 140.857 522.147 142.694C522.226 144.53 518.075 146.022 518.075 146.022C518.075 146.022 522.666 148.141 521.031 149.632Z" fill="#ACAAD1"/>
</svg>
