<svg width="269" height="204" viewBox="0 0 269 204" fill="none" xmlns="http://www.w3.org/2000/svg">
<path d="M175.214 89.3457L34.4522 64.5159C26.2939 63.0768 18.5146 68.5239 17.0766 76.6824L2.60373 158.794C1.16572 166.952 6.61361 174.733 14.7719 176.172L155.534 201.001C163.692 202.441 171.471 196.993 172.909 188.835L187.382 106.724C188.82 98.5652 183.372 90.7848 175.214 89.3457Z" fill="#133578"/>
<path d="M184.21 81.3462L43.4479 56.5164C35.2895 55.0773 27.5102 60.5244 26.0722 68.6829L11.5993 150.794C10.1613 158.953 15.6092 166.733 23.7675 168.172L164.529 193.002C172.688 194.441 180.467 188.994 181.905 180.835L196.378 98.7242C197.816 90.5657 192.368 82.7853 184.21 81.3462Z" fill="white"/>
<path d="M54.2959 82.6044L40.4759 80.1666C38.8442 79.8788 37.2883 80.9683 37.0007 82.6L35.5018 91.1044C35.2142 92.7361 36.3037 94.2921 37.9354 94.58L51.7554 97.0178C53.3871 97.3056 54.943 96.2162 55.2306 94.5845L56.7296 86.08C57.0172 84.4483 55.9276 82.8923 54.2959 82.6044Z" fill="#4B3CFB"/>
<path d="M91.5678 150.933L25.5501 139.288C23.9184 139 22.3626 140.09 22.075 141.721L21.076 147.389C20.7884 149.021 21.8779 150.577 23.5096 150.865L89.5273 162.51C91.1589 162.798 92.7148 161.708 93.0024 160.077L94.0014 154.409C94.289 152.777 93.1994 151.221 91.5678 150.933Z" fill="#DCDDEB"/>
<g style="mix-blend-mode:multiply">
<g style="mix-blend-mode:multiply">
<path d="M136.6 173.463C141.214 174.276 145.613 171.195 146.426 166.579C147.24 161.964 144.159 157.563 139.546 156.749C134.932 155.935 130.533 159.017 129.72 163.632C128.906 168.248 131.987 172.649 136.6 173.463Z" fill="#0075FF"/>
</g>
</g>
<g style="mix-blend-mode:multiply">
<g style="mix-blend-mode:multiply">
<path d="M148.263 175.52C152.877 176.333 157.276 173.252 158.089 168.636C158.903 164.021 155.822 159.62 151.209 158.806C146.595 157.992 142.196 161.074 141.383 165.689C140.569 170.305 143.65 174.706 148.263 175.52Z" fill="#CEE5FF"/>
</g>
</g>
<path d="M52.7999 115.729L30.5568 111.806C28.8381 111.503 27.1993 112.65 26.8964 114.369L26.8964 114.369C26.5934 116.088 27.7411 117.727 29.4598 118.03L51.7029 121.953C53.4215 122.257 55.0603 121.109 55.3633 119.39C55.6662 117.672 54.5185 116.033 52.7999 115.729Z" fill="#EFF0F7"/>
<path d="M90.1267 122.315L67.8837 118.391C66.165 118.088 64.5262 119.235 64.2232 120.954L64.2232 120.954C63.9203 122.673 65.068 124.312 66.7866 124.615L89.0297 128.539C90.7484 128.842 92.3872 127.694 92.6901 125.975C92.9931 124.257 91.8454 122.618 90.1267 122.315Z" fill="#EFF0F7"/>
<path d="M127.454 128.899L105.211 124.975C103.492 124.672 101.853 125.819 101.55 127.538L101.55 127.538C101.248 129.257 102.395 130.896 104.114 131.199L126.357 135.123C128.076 135.426 129.714 134.278 130.017 132.559C130.32 130.841 129.173 129.202 127.454 128.899Z" fill="#EFF0F7"/>
<path d="M164.78 135.483L142.537 131.559C140.818 131.256 139.179 132.403 138.876 134.122L138.876 134.122C138.574 135.841 139.721 137.48 141.44 137.783L163.683 141.707C165.402 142.01 167.04 140.862 167.343 139.143C167.646 137.425 166.499 135.786 164.78 135.483Z" fill="#EFF0F7"/>
<path d="M227.612 12.5872L86.8503 37.417C78.692 38.8561 73.2441 46.6365 74.6821 54.795L89.155 136.906C90.593 145.065 98.3723 150.512 106.531 149.073L247.292 124.243C255.451 122.804 260.899 115.024 259.461 106.865L244.988 24.7538C243.55 16.5953 235.77 11.1481 227.612 12.5872Z" fill="#133578"/>
<path d="M234.151 3.26345L93.3894 28.0933C85.2311 29.5324 79.7832 37.3128 81.2212 45.4713L95.694 127.583C97.132 135.741 104.911 141.188 113.07 139.749L253.832 114.919C261.99 113.48 267.438 105.7 266 97.5413L251.527 15.43C250.089 7.27152 242.31 1.82436 234.151 3.26345Z" fill="#0075FF"/>
<path d="M252.493 20.9151L82.1877 50.9563L85.7687 71.273L256.074 41.2318L252.493 20.9151Z" fill="#133578"/>
<path d="M141.22 77.2201L100.178 84.4596C98.4595 84.7628 97.3119 86.4018 97.6148 88.1205L97.6148 88.1205C97.9177 89.8392 99.5566 90.9868 101.275 90.6836L142.317 83.4441C144.035 83.1409 145.183 81.5018 144.88 79.7831C144.577 78.0644 142.938 76.9169 141.22 77.2201Z" fill="#133578"/>
<path d="M178.261 70.6863L153.09 75.1264C151.371 75.4295 150.224 77.0686 150.527 78.7873L150.527 78.7873C150.829 80.506 152.468 81.6535 154.187 81.3504L179.358 76.9103C181.077 76.6071 182.224 74.968 181.922 73.2493C181.619 71.5306 179.98 70.3831 178.261 70.6863Z" fill="#133578"/>
</svg>
