<svg width="176" height="193" viewBox="0 0 176 193" fill="none" xmlns="http://www.w3.org/2000/svg">
<g id="Group 2">
<g id="Group 1">
<path id="Vector" d="M163.865 13.53H24.2715C17.6441 13.53 12.2715 18.9026 12.2715 25.53V180.57C12.2715 187.197 17.6441 192.57 24.2715 192.57H163.865C170.493 192.57 175.865 187.197 175.865 180.57V25.53C175.865 18.9026 170.493 13.53 163.865 13.53Z" fill="#133578"/>
<path id="Vector_2" d="M151.594 0.584473H12C5.37258 0.584473 0 5.95706 0 12.5845V167.624C0 174.252 5.37258 179.624 12 179.624H151.594C158.221 179.624 163.594 174.252 163.594 167.624V12.5845C163.594 5.95706 158.221 0.584473 151.594 0.584473Z" fill="white"/>
<path id="Vector_3" d="M0 12.5845C0 5.9571 5.3726 0.584473 12 0.584473H151.594C158.222 0.584473 163.594 5.9571 163.594 12.5845V24.8915H0V12.5845Z" fill="#0075FF"/>
<path id="Vector_4" d="M34.3609 61.6174H23.3706C18.9523 61.6174 15.3706 65.1992 15.3706 69.6174V80.6077C15.3706 85.026 18.9523 88.6077 23.3706 88.6077H34.3609C38.7792 88.6077 42.3609 85.026 42.3609 80.6077V69.6174C42.3609 65.1992 38.7792 61.6174 34.3609 61.6174Z" fill="#EFF0F7"/>
<path id="Vector_5" d="M34.3609 96.608H23.3706C18.9523 96.608 15.3706 100.19 15.3706 104.608V115.598C15.3706 120.017 18.9523 123.598 23.3706 123.598H34.3609C38.7792 123.598 42.3609 120.017 42.3609 115.598V104.608C42.3609 100.19 38.7792 96.608 34.3609 96.608Z" fill="#EFF0F7"/>
<path id="Vector_6" d="M34.3609 131.598H23.3706C18.9523 131.598 15.3706 135.18 15.3706 139.598V150.588C15.3706 155.007 18.9523 158.588 23.3706 158.588H34.3609C38.7792 158.588 42.3609 155.007 42.3609 150.588V139.598C42.3609 135.18 38.7792 131.598 34.3609 131.598Z" fill="#EFF0F7"/>
<path id="Vector_7" d="M68.3511 61.6174H57.3608C52.9425 61.6174 49.3608 65.1992 49.3608 69.6174V80.6077C49.3608 85.026 52.9425 88.6077 57.3608 88.6077H68.3511C72.7694 88.6077 76.3511 85.026 76.3511 80.6077V69.6174C76.3511 65.1992 72.7694 61.6174 68.3511 61.6174Z" fill="#EFF0F7"/>
<path id="Vector_8" d="M68.3511 96.608H57.3608C52.9425 96.608 49.3608 100.19 49.3608 104.608V115.598C49.3608 120.017 52.9425 123.598 57.3608 123.598H68.3511C72.7694 123.598 76.3511 120.017 76.3511 115.598V104.608C76.3511 100.19 72.7694 96.608 68.3511 96.608Z" fill="#4B3CFB"/>
<path id="Vector_9" d="M68.3511 131.598H57.3608C52.9425 131.598 49.3608 135.18 49.3608 139.598V150.588C49.3608 155.007 52.9425 158.588 57.3608 158.588H68.3511C72.7694 158.588 76.3511 155.007 76.3511 150.588V139.598C76.3511 135.18 72.7694 131.598 68.3511 131.598Z" fill="#EFF0F7"/>
<path id="Vector_10" d="M102.341 61.6174H91.351C86.9327 61.6174 83.351 65.1992 83.351 69.6174V80.6077C83.351 85.026 86.9327 88.6077 91.351 88.6077H102.341C106.76 88.6077 110.341 85.026 110.341 80.6077V69.6174C110.341 65.1992 106.76 61.6174 102.341 61.6174Z" fill="#EFF0F7"/>
<path id="Vector_11" d="M102.341 96.608H91.351C86.9327 96.608 83.351 100.19 83.351 104.608V115.598C83.351 120.017 86.9327 123.598 91.351 123.598H102.341C106.76 123.598 110.341 120.017 110.341 115.598V104.608C110.341 100.19 106.76 96.608 102.341 96.608Z" fill="#EFF0F7"/>
<path id="Vector_12" d="M102.341 131.598H91.351C86.9327 131.598 83.351 135.18 83.351 139.598V150.588C83.351 155.007 86.9327 158.588 91.351 158.588H102.341C106.76 158.588 110.341 155.007 110.341 150.588V139.598C110.341 135.18 106.76 131.598 102.341 131.598Z" fill="#EFF0F7"/>
<path id="Vector_13" d="M136.331 61.6174H125.341C120.923 61.6174 117.341 65.1992 117.341 69.6174V80.6077C117.341 85.026 120.923 88.6077 125.341 88.6077H136.331C140.75 88.6077 144.331 85.026 144.331 80.6077V69.6174C144.331 65.1992 140.75 61.6174 136.331 61.6174Z" fill="#EFF0F7"/>
<path id="Vector_14" d="M136.331 96.608H125.341C120.923 96.608 117.341 100.19 117.341 104.608V115.598C117.341 120.017 120.923 123.598 125.341 123.598H136.331C140.75 123.598 144.331 120.017 144.331 115.598V104.608C144.331 100.19 140.75 96.608 136.331 96.608Z" fill="#EFF0F7"/>
<path id="Vector_15" d="M136.331 131.598H125.341C120.923 131.598 117.341 135.18 117.341 139.598V150.588C117.341 155.007 120.923 158.588 125.341 158.588H136.331C140.75 158.588 144.331 155.007 144.331 150.588V139.598C144.331 135.18 140.75 131.598 136.331 131.598Z" fill="#EFF0F7"/>
<path id="Vector_16" opacity="0.6" d="M38.3609 41.5115H19.3706C17.1615 41.5115 15.3706 43.3023 15.3706 45.5115C15.3706 47.7206 17.1615 49.5115 19.3706 49.5115H38.3609C40.57 49.5115 42.3609 47.7206 42.3609 45.5115C42.3609 43.3023 40.57 41.5115 38.3609 41.5115Z" fill="#A0A3BD"/>
<path id="Vector_17" opacity="0.6" d="M72.3511 41.5115H53.3608C51.1517 41.5115 49.3608 43.3023 49.3608 45.5115C49.3608 47.7206 51.1517 49.5115 53.3608 49.5115H72.3511C74.5602 49.5115 76.3511 47.7206 76.3511 45.5115C76.3511 43.3023 74.5602 41.5115 72.3511 41.5115Z" fill="#A0A3BD"/>
<path id="Vector_18" opacity="0.6" d="M106.341 41.5115H87.351C85.1419 41.5115 83.351 43.3023 83.351 45.5115C83.351 47.7206 85.1419 49.5115 87.351 49.5115H106.341C108.55 49.5115 110.341 47.7206 110.341 45.5115C110.341 43.3023 108.55 41.5115 106.341 41.5115Z" fill="#A0A3BD"/>
<path id="Vector_19" opacity="0.6" d="M140.331 41.5115H121.341C119.132 41.5115 117.341 43.3023 117.341 45.5115C117.341 47.7206 119.132 49.5115 121.341 49.5115H140.331C142.54 49.5115 144.331 47.7206 144.331 45.5115C144.331 43.3023 142.54 41.5115 140.331 41.5115Z" fill="#A0A3BD"/>
</g>
</g>
<g id="Group 1_2">
<path id="Vector_20" d="M163.865 13.9456H24.2715C17.6441 13.9456 12.2715 19.3181 12.2715 25.9456V180.986C12.2715 187.613 17.6441 192.986 24.2715 192.986H163.865C170.493 192.986 175.865 187.613 175.865 180.986V25.9456C175.865 19.3181 170.493 13.9456 163.865 13.9456Z" fill="#133578"/>
<path id="Vector_21" d="M151.594 1H12C5.37258 1 0 6.37258 0 13V168.04C0 174.667 5.37258 180.04 12 180.04H151.594C158.221 180.04 163.594 174.667 163.594 168.04V13C163.594 6.37258 158.221 1 151.594 1Z" fill="white"/>
<path id="Vector_22" d="M0 13C0 6.37263 5.3726 1 12 1H151.594C158.222 1 163.594 6.37263 163.594 13V25.307H0V13Z" fill="#0075FF"/>
<path id="Vector_23" d="M34.3609 62.033H23.3706C18.9523 62.033 15.3706 65.6147 15.3706 70.033V81.0233C15.3706 85.4415 18.9523 89.0233 23.3706 89.0233H34.3609C38.7792 89.0233 42.3609 85.4415 42.3609 81.0233V70.033C42.3609 65.6147 38.7792 62.033 34.3609 62.033Z" fill="#EFF0F7"/>
<path id="Vector_24" d="M34.3609 97.0236H23.3706C18.9523 97.0236 15.3706 100.605 15.3706 105.024V116.014C15.3706 120.432 18.9523 124.014 23.3706 124.014H34.3609C38.7792 124.014 42.3609 120.432 42.3609 116.014V105.024C42.3609 100.605 38.7792 97.0236 34.3609 97.0236Z" fill="#EFF0F7"/>
<path id="Vector_25" d="M34.3609 132.014H23.3706C18.9523 132.014 15.3706 135.595 15.3706 140.014V151.004C15.3706 155.422 18.9523 159.004 23.3706 159.004H34.3609C38.7792 159.004 42.3609 155.422 42.3609 151.004V140.014C42.3609 135.595 38.7792 132.014 34.3609 132.014Z" fill="#EFF0F7"/>
<path id="Vector_26" d="M68.3511 62.033H57.3608C52.9425 62.033 49.3608 65.6147 49.3608 70.033V81.0233C49.3608 85.4415 52.9425 89.0233 57.3608 89.0233H68.3511C72.7694 89.0233 76.3511 85.4415 76.3511 81.0233V70.033C76.3511 65.6147 72.7694 62.033 68.3511 62.033Z" fill="#EFF0F7"/>
<path id="Vector_27" d="M68.3511 97.0236H57.3608C52.9425 97.0236 49.3608 100.605 49.3608 105.024V116.014C49.3608 120.432 52.9425 124.014 57.3608 124.014H68.3511C72.7694 124.014 76.3511 120.432 76.3511 116.014V105.024C76.3511 100.605 72.7694 97.0236 68.3511 97.0236Z" fill="#4B3CFB"/>
<path id="Vector_28" d="M68.3511 132.014H57.3608C52.9425 132.014 49.3608 135.595 49.3608 140.014V151.004C49.3608 155.422 52.9425 159.004 57.3608 159.004H68.3511C72.7694 159.004 76.3511 155.422 76.3511 151.004V140.014C76.3511 135.595 72.7694 132.014 68.3511 132.014Z" fill="#EFF0F7"/>
<path id="Vector_29" d="M102.341 62.033H91.351C86.9327 62.033 83.351 65.6147 83.351 70.033V81.0233C83.351 85.4415 86.9327 89.0233 91.351 89.0233H102.341C106.76 89.0233 110.341 85.4415 110.341 81.0233V70.033C110.341 65.6147 106.76 62.033 102.341 62.033Z" fill="#EFF0F7"/>
<path id="Vector_30" d="M102.341 97.0236H91.351C86.9327 97.0236 83.351 100.605 83.351 105.024V116.014C83.351 120.432 86.9327 124.014 91.351 124.014H102.341C106.76 124.014 110.341 120.432 110.341 116.014V105.024C110.341 100.605 106.76 97.0236 102.341 97.0236Z" fill="#EFF0F7"/>
<path id="Vector_31" d="M102.341 132.014H91.351C86.9327 132.014 83.351 135.595 83.351 140.014V151.004C83.351 155.422 86.9327 159.004 91.351 159.004H102.341C106.76 159.004 110.341 155.422 110.341 151.004V140.014C110.341 135.595 106.76 132.014 102.341 132.014Z" fill="#EFF0F7"/>
<path id="Vector_32" d="M136.331 62.033H125.341C120.923 62.033 117.341 65.6147 117.341 70.033V81.0233C117.341 85.4415 120.923 89.0233 125.341 89.0233H136.331C140.75 89.0233 144.331 85.4415 144.331 81.0233V70.033C144.331 65.6147 140.75 62.033 136.331 62.033Z" fill="#EFF0F7"/>
<path id="Vector_33" d="M136.331 97.0236H125.341C120.923 97.0236 117.341 100.605 117.341 105.024V116.014C117.341 120.432 120.923 124.014 125.341 124.014H136.331C140.75 124.014 144.331 120.432 144.331 116.014V105.024C144.331 100.605 140.75 97.0236 136.331 97.0236Z" fill="#EFF0F7"/>
<path id="Vector_34" d="M136.331 132.014H125.341C120.923 132.014 117.341 135.595 117.341 140.014V151.004C117.341 155.422 120.923 159.004 125.341 159.004H136.331C140.75 159.004 144.331 155.422 144.331 151.004V140.014C144.331 135.595 140.75 132.014 136.331 132.014Z" fill="#EFF0F7"/>
<path id="Vector_35" opacity="0.6" d="M38.3609 41.927H19.3706C17.1615 41.927 15.3706 43.7179 15.3706 45.927C15.3706 48.1361 17.1615 49.927 19.3706 49.927H38.3609C40.57 49.927 42.3609 48.1361 42.3609 45.927C42.3609 43.7179 40.57 41.927 38.3609 41.927Z" fill="#A0A3BD"/>
<path id="Vector_36" opacity="0.6" d="M72.3511 41.927H53.3608C51.1517 41.927 49.3608 43.7179 49.3608 45.927C49.3608 48.1361 51.1517 49.927 53.3608 49.927H72.3511C74.5602 49.927 76.3511 48.1361 76.3511 45.927C76.3511 43.7179 74.5602 41.927 72.3511 41.927Z" fill="#A0A3BD"/>
<path id="Vector_37" opacity="0.6" d="M106.341 41.927H87.351C85.1419 41.927 83.351 43.7179 83.351 45.927C83.351 48.1361 85.1419 49.927 87.351 49.927H106.341C108.55 49.927 110.341 48.1361 110.341 45.927C110.341 43.7179 108.55 41.927 106.341 41.927Z" fill="#A0A3BD"/>
<path id="Vector_38" opacity="0.6" d="M140.331 41.927H121.341C119.132 41.927 117.341 43.7179 117.341 45.927C117.341 48.1361 119.132 49.927 121.341 49.927H140.331C142.54 49.927 144.331 48.1361 144.331 45.927C144.331 43.7179 142.54 41.927 140.331 41.927Z" fill="#A0A3BD"/>
</g>
</svg>
